<svg xmlns="http://www.w3.org/2000/svg" width="700" height="360" viewBox="0 0 700 360">
  <defs>
    <style>
      .a {
        fill: #eeefed;
      }

      .b {
        fill: #e72b78;
      }

      .c {
        fill: #fff;
      }

      .d {
        fill: #f9b443;
      }

      .e {
        fill: #29abe2;
      }

      .f, .g {
        fill: none;
        stroke: #000;
        stroke-miterlimit: 10;
        stroke-width: 1.5343px;
      }

      .g {
        stroke-dasharray: 5.1316 5.1316;
      }

      .h {
        fill: #ccc;
      }

      .i {
        fill: #f2f2f2;
      }
    </style>
  </defs>
  <rect class="a" x="182.0579" y="-155.4307" width="335.8841" height="670.8615" rx="22.2985" transform="translate(170 530) rotate(-90)"/>
  <rect class="b" x="100.5185" y="27.1535" width="110.2719" height="51.0347"/>
  <g>
    <path class="c" d="M119.586,44.6053h-3.789l-.8,2.8936H112.503l3.1817-10.3926a.7711.7711,0,0,1,.3037-.4638.8985.8985,0,0,1,.5439-.1758h2.3028a.7835.7835,0,0,1,.8466.64l3.1817,10.3926h-2.4776Zm-.5273-1.8867-.9278-3.374q-.1918-.7983-.2236-1.0391h-.4316q-.0323.16-.1123.5118t-.128.5273l-.9267,3.374Z"/>
    <path class="c" d="M125.7735,39.6171l.1758,1.15a3.69,3.69,0,0,1,1.3672-.9747,4.3474,4.3474,0,0,1,1.7666-.3837q2.7188,0,2.7187,4.2207a5.1965,5.1965,0,0,1-.7275,3.1738,2.7522,2.7522,0,0,1-2.2783.9033,4.3249,4.3249,0,0,1-2.6387-.7676,12.5537,12.5537,0,0,1,.0479,1.6944V50.537h-2.35v-10.92Zm.4317,2.3974v3.6133a8.2887,8.2887,0,0,0,1.791.32,1.197,1.197,0,0,0,1.0791-.4482,3.8533,3.8533,0,0,0,.2959-1.87,4.3572,4.3572,0,0,0-.2715-1.8789,1.0039,1.0039,0,0,0-.96-.4874A3.7849,3.7849,0,0,0,126.2052,42.0145Z"/>
    <path class="c" d="M135.3663,39.6171l.1758,1.15a3.69,3.69,0,0,1,1.3672-.9747,4.347,4.347,0,0,1,1.7666-.3837q2.7188,0,2.7187,4.2207a5.1965,5.1965,0,0,1-.7275,3.1738,2.7523,2.7523,0,0,1-2.2783.9033,4.3247,4.3247,0,0,1-2.6387-.7676,12.554,12.554,0,0,1,.0478,1.6944V50.537h-2.35v-10.92Zm.4316,2.3974v3.6133a8.29,8.29,0,0,0,1.7911.32,1.197,1.197,0,0,0,1.0791-.4482,3.8546,3.8546,0,0,0,.2959-1.87,4.3588,4.3588,0,0,0-.2715-1.8789,1.004,1.004,0,0,0-.96-.4874A3.7855,3.7855,0,0,0,135.7979,42.0145Z"/>
    <path class="c" d="M145.4073,36.3075v8.6172q0,.8.8955.8h.6387l.2725,1.6465a4.2375,4.2375,0,0,1-1.8868.3193,2.3385,2.3385,0,0,1-1.663-.5674,2.0891,2.0891,0,0,1-.6075-1.6064v-9.209Z"/>
    <path class="c" d="M148.9727,36.1317h1.0557a.6072.6072,0,0,1,.6875.6865v.8643a.6079.6079,0,0,1-.6875.6875h-1.0557a.6079.6079,0,0,1-.6875-.6875v-.8643A.6072.6072,0,0,1,148.9727,36.1317Zm1.711,11.3672h-2.3506V39.6171h2.3506Z"/>
    <path class="c" d="M159.1407,45.6278l.208,1.5352a7.7007,7.7007,0,0,1-3.0537.5273,4.1081,4.1081,0,0,1-3.0615-.9346,4.6121,4.6121,0,0,1-.8877-3.206,4.6079,4.6079,0,0,1,.8955-3.2217,4.1658,4.1658,0,0,1,3.0859-.9355,7.2561,7.2561,0,0,1,2.9092.496l-.2558,1.4708q-1.7271-.0322-2.2539-.0323a1.9365,1.9365,0,0,0-1.4952.4639,2.7593,2.7593,0,0,0-.4072,1.7588,2.7574,2.7574,0,0,0,.4072,1.7588,1.9331,1.9331,0,0,0,1.4952.4638A17.47,17.47,0,0,0,159.1407,45.6278Z"/>
    <path class="c" d="M160.9952,41.3759l-.2246-1.6a23.1364,23.1364,0,0,1,4.1094-.3837,3.5515,3.5515,0,0,1,2.3506.6474,2.8454,2.8454,0,0,1,.7509,2.2471v5.2119h-1.87l-.24-1.1992a3.6766,3.6766,0,0,1-2.91,1.3906,2.8,2.8,0,0,1-1.8545-.5986,2.0579,2.0579,0,0,1-.72-1.6709v-.8a1.8026,1.8026,0,0,1,.64-1.4707,2.7122,2.7122,0,0,1,1.7753-.5274h2.8135V42.27a1.04,1.04,0,0,0-.2793-.8154,1.7548,1.7548,0,0,0-1.0156-.2071Q163.0094,41.2479,160.9952,41.3759Zm1.7266,3.4209v.3037q0,.8158.9267.8154a3.2649,3.2649,0,0,0,1.9668-.7676V44.0458h-2.126Q162.7217,44.0619,162.7218,44.7968Z"/>
    <path class="c" d="M172.922,41.1991v3.7256a.8236.8236,0,0,0,.1923.624.9947.9947,0,0,0,.6709.1758h1.0079l.2558,1.6465a6.7693,6.7693,0,0,1-2.2226.3193,2.2328,2.2328,0,0,1-1.6631-.5986,2.2773,2.2773,0,0,1-.5918-1.6709V41.1991h-1.3906V39.6962l1.3906-.0791V37.41h2.3506v2.2071h2.19v1.582Z"/>
    <path class="c" d="M177.127,36.1317h1.0557a.6072.6072,0,0,1,.6875.6865v.8643a.6079.6079,0,0,1-.6875.6875H177.127a.6079.6079,0,0,1-.6875-.6875v-.8643A.6072.6072,0,0,1,177.127,36.1317Zm1.711,11.3672h-2.3506V39.6171h2.3506Z"/>
    <path class="c" d="M184.5606,39.3925a4.2306,4.2306,0,0,1,3.126.9521,4.56,4.56,0,0,1,.919,3.2207,4.4987,4.4987,0,0,1-.919,3.2061,5.7166,5.7166,0,0,1-6.2676,0,4.5035,4.5035,0,0,1-.9189-3.2061,4.5633,4.5633,0,0,1,.9189-3.23A4.2831,4.2831,0,0,1,184.5606,39.3925Zm0,1.7753a1.4159,1.4159,0,0,0-1.2627.48,3.8555,3.8555,0,0,0-.3193,1.918,3.7646,3.7646,0,0,0,.3193,1.8867,1.4162,1.4162,0,0,0,1.2627.48,1.3994,1.3994,0,0,0,1.2393-.48,3.677,3.677,0,0,0,.3281-1.8867,3.8467,3.8467,0,0,0-.32-1.91A1.3867,1.3867,0,0,0,184.5606,41.1678Z"/>
    <path class="c" d="M192.1388,39.6171l.1757,1.167a5.38,5.38,0,0,1,3.3741-1.3916,2.2388,2.2388,0,0,1,1.6386.5595,2.1942,2.1942,0,0,1,.5674,1.6309v5.916h-2.35V42.3182a1.1642,1.1642,0,0,0-.168-.7265.7507.7507,0,0,0-.6-.2,5.5106,5.5106,0,0,0-2.19.72v5.3877h-2.3662V39.6171Z"/>
    <path class="c" d="M139.7315,55.493V64.11q0,.8.8955.8h.6387l.2725,1.6465a4.2371,4.2371,0,0,1-1.8867.3194,2.3386,2.3386,0,0,1-1.6631-.5674,2.09,2.09,0,0,1-.6075-1.6065V55.493Z"/>
    <path class="c" d="M142.8018,60.5614l-.2246-1.6a23.1274,23.1274,0,0,1,4.1094-.3838,3.5509,3.5509,0,0,1,2.3506.6475,2.8448,2.8448,0,0,1,.751,2.247v5.2119h-1.87l-.24-1.1992a3.6762,3.6762,0,0,1-2.91,1.3907,2.8,2.8,0,0,1-1.8545-.5987,2.0578,2.0578,0,0,1-.72-1.6709v-.8a1.8027,1.8027,0,0,1,.64-1.4707,2.7132,2.7132,0,0,1,1.7754-.5273h2.8135v-.3526a1.0407,1.0407,0,0,0-.2793-.8154,1.7556,1.7556,0,0,0-1.0157-.207Q144.816,60.4335,142.8018,60.5614Zm1.7266,3.4209v.3037q0,.816.9268.8154a3.2649,3.2649,0,0,0,1.9668-.7675V63.2313h-2.126Q144.5285,63.2475,144.5284,63.9823Z"/>
    <path class="c" d="M159.4933,58.8026l-2.7979,7.9942a6.3439,6.3439,0,0,1-.5518,1.1826,5.3515,5.3515,0,0,1-.8388,1.0468,3.1257,3.1257,0,0,1-1.2715.7442,3.9771,3.9771,0,0,1-1.6865.1279l-.1924-1.3916a4.3877,4.3877,0,0,0,1.5029-.6631,2.6938,2.6938,0,0,0,.8477-1.0957l.0322-.0635h-.4482a.7365.7365,0,0,1-.7676-.5751l-2.5733-7.3067h2.5254l1.4717,5.1q.1436.56.2393,1.1836h.208c.0322-.1279.0849-.3281.16-.6s.128-.4658.1592-.584l1.4551-5.1Z"/>
    <path class="c" d="M165.4737,63.535H162.627a1.6382,1.6382,0,0,0,.52,1.1592,2.36,2.36,0,0,0,1.3515.2959,28.4536,28.4536,0,0,0,2.9414-.1767l.2237,1.4716a8.0948,8.0948,0,0,1-3.4375.5909,4.3234,4.3234,0,0,1-3.1651-.959,4.4079,4.4079,0,0,1-.9433-3.166,4.5542,4.5542,0,0,1,.9189-3.2452,4.2538,4.2538,0,0,1,3.0938-.9277,4.6921,4.6921,0,0,1,2.8457.68,2.4905,2.4905,0,0,1,.8955,2.07,2.2128,2.2128,0,0,1-.5674,1.6553A2.5587,2.5587,0,0,1,165.4737,63.535Zm-2.8945-1.4228h2.2383a.685.685,0,0,0,.584-.208,1.0271,1.0271,0,0,0,.1513-.6074.9134.9134,0,0,0-.2871-.7754,1.85,1.85,0,0,0-1.0556-.2159,1.6817,1.6817,0,0,0-1.2471.3594A2.3711,2.3711,0,0,0,162.5792,62.1122Z"/>
    <path class="c" d="M175.0655,58.578l-.2392,2.19h-.64a8.6214,8.6214,0,0,0-2.414.544v5.372h-2.3663V58.8026h1.8379l.208,1.15a4.9751,4.9751,0,0,1,3.1983-1.375Z"/>
  </g>
  <rect class="d" x="100.5181" y="96.9432" width="110.2719" height="51.0347"/>
  <g>
    <path d="M127.6847,108.2391h-3.294v9.05h-2.4463v-9.05h-3.2929v-1.9824h9.0332Z"/>
    <path d="M133.4083,109.1825l-.2393,2.19h-.64a8.6212,8.6212,0,0,0-2.4141.544v5.372h-2.3662v-7.8818h1.8379l.208,1.15a4.9751,4.9751,0,0,1,3.1983-1.375Z"/>
    <path d="M134.72,111.1659l-.2246-1.6a23.1274,23.1274,0,0,1,4.1094-.3838,3.5509,3.5509,0,0,1,2.3506.6475,2.8452,2.8452,0,0,1,.7509,2.247v5.2119h-1.87l-.24-1.1992a3.6763,3.6763,0,0,1-2.91,1.3906,2.8,2.8,0,0,1-1.8545-.5986,2.058,2.058,0,0,1-.72-1.6709v-.8a1.8027,1.8027,0,0,1,.64-1.4707,2.7123,2.7123,0,0,1,1.7754-.5273H139.34V112.06a1.04,1.04,0,0,0-.2793-.8154,1.7549,1.7549,0,0,0-1.0156-.207Q136.734,111.038,134.72,111.1659Zm1.7266,3.4209v.3037q0,.8158.9267.8154a3.2645,3.2645,0,0,0,1.9668-.7675v-1.1026H137.214Q136.4463,113.852,136.4464,114.5868Z"/>
    <path d="M145.4952,109.4071l.1758,1.167a5.38,5.38,0,0,1,3.374-1.3916,2.2385,2.2385,0,0,1,1.6387.56,2.1945,2.1945,0,0,1,.5674,1.6308v5.916h-2.35v-5.1806a1.165,1.165,0,0,0-.168-.7266.7507.7507,0,0,0-.6-.2,5.5121,5.5121,0,0,0-2.1905.72v5.3877h-2.3662v-7.8818Z"/>
    <path d="M156.6554,114.3632l-1.9668-.5274a2.8317,2.8317,0,0,1-1.503-.8721,2.4822,2.4822,0,0,1-.415-1.5263,1.9487,1.9487,0,0,1,.7588-1.7432,4.8733,4.8733,0,0,1,2.5986-.5117,23.0948,23.0948,0,0,1,3.6455.3037l-.16,1.52q-2.0142-.0321-3.0381-.0322c-.3731,0-.6309.0029-.7754.0078a2.4288,2.4288,0,0,0-.4316.0567c-.1436.0312-.2315.082-.2637.1513a.7758.7758,0,0,0-.0479.3116,1.2972,1.2972,0,0,0,.0078.1445.3251.3251,0,0,0,.04.1191.9506.9506,0,0,0,.0556.0889.3445.3445,0,0,0,.0879.0713.5625.5625,0,0,0,.1045.0556c.0264.0108.0742.03.1436.0567s.123.0449.16.0557.1065.0292.208.0556.1778.0459.2315.0567l2.0146.5429a3.1546,3.1546,0,0,1,1.503.8076,2.1922,2.1922,0,0,1,.4472,1.4952,2.0637,2.0637,0,0,1-.8154,1.91,5.64,5.64,0,0,1-2.7978.5039,21.395,21.395,0,0,1-3.5332-.2715l.1435-1.5351q.5757.0322,2.7344.0322a7.5886,7.5886,0,0,0,1.6064-.1045.4618.4618,0,0,0,.376-.4873,1.2538,1.2538,0,0,0-.0078-.1435.3259.3259,0,0,0-.04-.12.4685.4685,0,0,0-.0635-.0879.5231.5231,0,0,0-.1045-.0722c-.0479-.0264-.085-.0479-.1113-.0635a1.043,1.043,0,0,0-.1524-.0644c-.0742-.0264-.1338-.045-.1758-.0557s-.1172-.0293-.2236-.0557A2.151,2.151,0,0,1,156.6554,114.3632Z"/>
    <path d="M163.4981,109.4071l.1758,1.15a3.69,3.69,0,0,1,1.3672-.9746,4.3459,4.3459,0,0,1,1.7666-.3838q2.7188,0,2.7188,4.2207a5.196,5.196,0,0,1-.7276,3.1738,2.7519,2.7519,0,0,1-2.2783.9033,4.3249,4.3249,0,0,1-2.6387-.7675,12.5522,12.5522,0,0,1,.0479,1.6943v1.9033h-2.35v-10.92Zm.4317,2.3975v3.6132a8.2906,8.2906,0,0,0,1.791.32A1.1969,1.1969,0,0,0,166.8,115.29a3.8531,3.8531,0,0,0,.2959-1.87,4.3579,4.3579,0,0,0-.2715-1.8789,1.0039,1.0039,0,0,0-.96-.4873A3.7852,3.7852,0,0,0,163.93,111.8046Z"/>
    <path d="M174.8976,109.1825a4.2309,4.2309,0,0,1,3.1259.9521,4.56,4.56,0,0,1,.919,3.2207,4.4985,4.4985,0,0,1-.919,3.2061,5.7166,5.7166,0,0,1-6.2676,0,4.5033,4.5033,0,0,1-.9189-3.2061,4.563,4.563,0,0,1,.9189-3.2294A4.2828,4.2828,0,0,1,174.8976,109.1825Zm0,1.7754a1.4157,1.4157,0,0,0-1.2627.48,3.8536,3.8536,0,0,0-.3194,1.9179,3.764,3.764,0,0,0,.3194,1.8868,1.4159,1.4159,0,0,0,1.2627.48,1.3992,1.3992,0,0,0,1.2392-.48,3.6767,3.6767,0,0,0,.3281-1.8868,3.847,3.847,0,0,0-.32-1.91A1.3866,1.3866,0,0,0,174.8976,110.9579Z"/>
    <path d="M186.2169,109.1825l-.2393,2.19h-.64a8.6212,8.6212,0,0,0-2.4141.544v5.372h-2.3662v-7.8818h1.8379l.208,1.15a4.9751,4.9751,0,0,1,3.1982-1.375Z"/>
    <path d="M190.422,110.9891v3.7256a.8235.8235,0,0,0,.1923.624.9947.9947,0,0,0,.6709.1758h1.0079l.2558,1.6465a6.7693,6.7693,0,0,1-2.2226.3193,2.2328,2.2328,0,0,1-1.6631-.5986,2.2771,2.2771,0,0,1-.5918-1.6709v-4.2217h-1.3906v-1.5029l1.3906-.0791V107.2h2.3506v2.207h2.19v1.582Z"/>
    <path d="M139.7315,125.2831V133.9q0,.8.8955.8h.6387l.2725,1.6465a4.2387,4.2387,0,0,1-1.8867.3193,2.3386,2.3386,0,0,1-1.6631-.5674,2.0893,2.0893,0,0,1-.6075-1.6064v-9.209Z"/>
    <path d="M142.8018,130.3514l-.2246-1.6a23.1368,23.1368,0,0,1,4.1094-.3838,3.5515,3.5515,0,0,1,2.3506.6475,2.8451,2.8451,0,0,1,.751,2.2471v5.2119h-1.87l-.24-1.1992a3.6764,3.6764,0,0,1-2.91,1.3906,2.8,2.8,0,0,1-1.8545-.5986,2.0579,2.0579,0,0,1-.72-1.6709v-.8a1.8026,1.8026,0,0,1,.64-1.4707,2.7126,2.7126,0,0,1,1.7754-.5274h2.8135v-.3525a1.0409,1.0409,0,0,0-.2793-.8155,1.7556,1.7556,0,0,0-1.0157-.207Q144.816,130.2235,142.8018,130.3514Zm1.7266,3.4209v.3037q0,.816.9268.8155a3.2651,3.2651,0,0,0,1.9668-.7676v-1.1025h-2.126Q144.5285,133.0375,144.5284,133.7723Z"/>
    <path d="M159.4933,128.5927l-2.7979,7.9941a6.3409,6.3409,0,0,1-.5518,1.1826,5.3549,5.3549,0,0,1-.8388,1.0469,3.1255,3.1255,0,0,1-1.2715.7441,3.9755,3.9755,0,0,1-1.6865.128l-.1924-1.3916a4.39,4.39,0,0,0,1.5029-.6631,2.6945,2.6945,0,0,0,.8477-1.0957l.0322-.0635h-.4482a.7365.7365,0,0,1-.7676-.5752l-2.5733-7.3066h2.5254l1.4717,5.1q.1436.56.2393,1.1836h.208c.0322-.128.0849-.3282.16-.6s.128-.4658.1592-.5839l1.4551-5.1Z"/>
    <path d="M165.4737,133.3251H162.627a1.6382,1.6382,0,0,0,.52,1.1592,2.3608,2.3608,0,0,0,1.3515.2959,28.4284,28.4284,0,0,0,2.9414-.1768l.2237,1.4717a8.0965,8.0965,0,0,1-3.4375.5908,4.323,4.323,0,0,1-3.1651-.959,4.4075,4.4075,0,0,1-.9433-3.166,4.5539,4.5539,0,0,1,.9189-3.2451,4.2534,4.2534,0,0,1,3.0938-.9278,4.6921,4.6921,0,0,1,2.8457.68,2.4908,2.4908,0,0,1,.8955,2.07,2.2127,2.2127,0,0,1-.5674,1.6553A2.5587,2.5587,0,0,1,165.4737,133.3251Zm-2.8945-1.4229h2.2383a.6847.6847,0,0,0,.584-.208,1.0271,1.0271,0,0,0,.1513-.6074.9136.9136,0,0,0-.2871-.7754,1.8508,1.8508,0,0,0-1.0556-.2158,1.6813,1.6813,0,0,0-1.2471.3594A2.37,2.37,0,0,0,162.5792,131.9022Z"/>
    <path d="M175.0655,128.368l-.2392,2.1905h-.64a8.62,8.62,0,0,0-2.414.5439v5.3721h-2.3663v-7.8818h1.8379l.208,1.15a4.9751,4.9751,0,0,1,3.1983-1.375Z"/>
  </g>
  <rect class="e" x="100.5185" y="164.5039" width="110.2719" height="51.0347"/>
  <g>
    <path class="c" d="M128.3722,184.85h-2.4307V173.8173h2.4307Z"/>
    <path class="c" d="M132.3849,176.9677l.1757,1.1669a5.3808,5.3808,0,0,1,3.3741-1.3916,2.2389,2.2389,0,0,1,1.6386.56,2.1942,2.1942,0,0,1,.5674,1.6309v5.916h-2.35v-5.1807a1.1642,1.1642,0,0,0-.168-.7265.7507.7507,0,0,0-.6-.2,5.5106,5.5106,0,0,0-2.19.72V184.85h-2.3662v-7.8818Z"/>
    <path class="c" d="M143.1134,178.55v3.7256a.8232.8232,0,0,0,.1924.624.9943.9943,0,0,0,.6709.1758h1.0078l.2558,1.6465a6.772,6.772,0,0,1-2.2226.3193,2.2328,2.2328,0,0,1-1.6631-.5986,2.2777,2.2777,0,0,1-.5918-1.6709V178.55h-1.3906v-1.5029l1.3906-.0791v-2.2071h2.3506v2.2071h2.19v1.582Z"/>
    <path class="c" d="M151.6358,181.7h-2.8466a1.6378,1.6378,0,0,0,.5195,1.1592,2.3608,2.3608,0,0,0,1.3515.2959,28.4318,28.4318,0,0,0,2.9415-.1768l.2236,1.4717a8.0965,8.0965,0,0,1-3.4375.5908,4.3231,4.3231,0,0,1-3.1651-.959,4.4075,4.4075,0,0,1-.9433-3.166,4.5539,4.5539,0,0,1,.9189-3.2451,4.2534,4.2534,0,0,1,3.0938-.9278,4.6921,4.6921,0,0,1,2.8457.68,2.4905,2.4905,0,0,1,.8955,2.07,2.2127,2.2127,0,0,1-.5674,1.6553A2.5587,2.5587,0,0,1,151.6358,181.7Zm-2.8945-1.4229H150.98a.6847.6847,0,0,0,.584-.208,1.0264,1.0264,0,0,0,.1513-.6074.9136.9136,0,0,0-.2871-.7754,1.8508,1.8508,0,0,0-1.0556-.2158,1.6813,1.6813,0,0,0-1.2471.3594A2.3712,2.3712,0,0,0,148.7413,180.2772Z"/>
    <path class="c" d="M161.2276,176.743l-.2392,2.1905h-.64a8.62,8.62,0,0,0-2.414.5439V184.85h-2.3663v-7.8818h1.8379l.208,1.15a4.9751,4.9751,0,0,1,3.1983-1.375Z"/>
    <path class="c" d="M164.2813,176.9677l.1758,1.1669a5.38,5.38,0,0,1,3.374-1.3916,2.239,2.239,0,0,1,1.6387.56,2.1946,2.1946,0,0,1,.5674,1.6309v5.916h-2.35v-5.1807a1.1649,1.1649,0,0,0-.168-.7265.7507.7507,0,0,0-.6-.2,5.51,5.51,0,0,0-2.19.72V184.85h-2.3662v-7.8818Z"/>
    <path class="c" d="M176.961,181.7h-2.8467a1.6382,1.6382,0,0,0,.52,1.1592,2.3608,2.3608,0,0,0,1.3515.2959,28.4284,28.4284,0,0,0,2.9414-.1768l.2237,1.4717a8.0965,8.0965,0,0,1-3.4375.5908,4.323,4.323,0,0,1-3.1651-.959,4.4075,4.4075,0,0,1-.9433-3.166,4.5539,4.5539,0,0,1,.9189-3.2451,4.2534,4.2534,0,0,1,3.0938-.9278,4.6921,4.6921,0,0,1,2.8457.68,2.4908,2.4908,0,0,1,.8955,2.07,2.2127,2.2127,0,0,1-.5674,1.6553A2.5587,2.5587,0,0,1,176.961,181.7Zm-2.8945-1.4229h2.2383a.6847.6847,0,0,0,.584-.208,1.0271,1.0271,0,0,0,.1513-.6074.9136.9136,0,0,0-.2871-.7754,1.8508,1.8508,0,0,0-1.0556-.2158,1.6813,1.6813,0,0,0-1.2471.3594A2.3712,2.3712,0,0,0,174.0665,180.2772Z"/>
    <path class="c" d="M183.963,178.55v3.7256a.8232.8232,0,0,0,.1924.624.9943.9943,0,0,0,.6709.1758h1.0078l.2558,1.6465a6.772,6.772,0,0,1-2.2226.3193,2.2328,2.2328,0,0,1-1.6631-.5986,2.2777,2.2777,0,0,1-.5918-1.6709V178.55h-1.3906v-1.5029l1.3906-.0791v-2.2071h2.3506v2.2071h2.19v1.582Z"/>
    <path class="c" d="M139.7315,192.8436v8.6172q0,.8.8955.8h.6387l.2725,1.6465a4.2373,4.2373,0,0,1-1.8867.3193,2.3385,2.3385,0,0,1-1.6631-.5673,2.09,2.09,0,0,1-.6075-1.6065v-9.209Z"/>
    <path class="c" d="M142.8018,197.912l-.2246-1.6a23.1274,23.1274,0,0,1,4.1094-.3838,3.5515,3.5515,0,0,1,2.3506.6474,2.8452,2.8452,0,0,1,.751,2.2471v5.2119h-1.87l-.24-1.1992a3.6764,3.6764,0,0,1-2.91,1.3906,2.8,2.8,0,0,1-1.8545-.5986,2.0578,2.0578,0,0,1-.72-1.6709v-.8a1.8027,1.8027,0,0,1,.64-1.4707,2.7126,2.7126,0,0,1,1.7754-.5273h2.8135v-.3526a1.0407,1.0407,0,0,0-.2793-.8154,1.7556,1.7556,0,0,0-1.0157-.207Q144.816,197.7841,142.8018,197.912Zm1.7266,3.4209v.3037q0,.8159.9268.8154a3.2645,3.2645,0,0,0,1.9668-.7676v-1.1025h-2.126Q144.5285,200.5981,144.5284,201.3329Z"/>
    <path class="c" d="M159.4933,196.1532l-2.7979,7.9941a6.3418,6.3418,0,0,1-.5518,1.1827,5.3515,5.3515,0,0,1-.8388,1.0468,3.1257,3.1257,0,0,1-1.2715.7442,3.9771,3.9771,0,0,1-1.6865.1279l-.1924-1.3916a4.3877,4.3877,0,0,0,1.5029-.6631,2.6938,2.6938,0,0,0,.8477-1.0957l.0322-.0635h-.4482a.7365.7365,0,0,1-.7676-.5752l-2.5733-7.3066h2.5254l1.4717,5.1q.1436.56.2393,1.1836h.208c.0322-.1279.0849-.3281.16-.6s.128-.4658.1592-.584l1.4551-5.1Z"/>
    <path class="c" d="M165.4737,200.8856H162.627a1.6382,1.6382,0,0,0,.52,1.1592,2.36,2.36,0,0,0,1.3515.2959,28.4284,28.4284,0,0,0,2.9414-.1768l.2237,1.4717a8.095,8.095,0,0,1-3.4375.5908,4.3234,4.3234,0,0,1-3.1651-.9589,4.408,4.408,0,0,1-.9433-3.1661,4.5541,4.5541,0,0,1,.9189-3.2451,4.2538,4.2538,0,0,1,3.0938-.9277,4.6921,4.6921,0,0,1,2.8457.68,2.4905,2.4905,0,0,1,.8955,2.07,2.213,2.213,0,0,1-.5674,1.6553A2.5591,2.5591,0,0,1,165.4737,200.8856Zm-2.8945-1.4228h2.2383a.685.685,0,0,0,.584-.208,1.0275,1.0275,0,0,0,.1513-.6075.9137.9137,0,0,0-.2871-.7754,1.8508,1.8508,0,0,0-1.0556-.2158,1.6817,1.6817,0,0,0-1.2471.3594A2.3708,2.3708,0,0,0,162.5792,199.4628Z"/>
    <path class="c" d="M175.0655,195.9286l-.2392,2.19h-.64a8.6214,8.6214,0,0,0-2.414.544v5.372h-2.3663v-7.8818h1.8379l.208,1.15a4.9751,4.9751,0,0,1,3.1983-1.375Z"/>
  </g>
  <rect class="b" x="489.21" y="27.1535" width="110.2719" height="51.0347"/>
  <g>
    <path class="c" d="M508.2755,44.6053h-3.7891l-.8,2.8936h-2.4941l3.1816-10.3926a.7715.7715,0,0,1,.3037-.4638.8988.8988,0,0,1,.544-.1758h2.3027a.7837.7837,0,0,1,.8467.64l3.1816,10.3926h-2.4775Zm-.5274-1.8867-.9277-3.374q-.1918-.7983-.2236-1.0391h-.4317q-.0323.16-.1123.5118c-.0527.2343-.0957.41-.1279.5273l-.9268,3.374Z"/>
    <path class="c" d="M514.463,39.6171l.1758,1.15a3.69,3.69,0,0,1,1.3671-.9747,4.3478,4.3478,0,0,1,1.7667-.3837q2.7188,0,2.7187,4.2207a5.1972,5.1972,0,0,1-.7275,3.1738,2.7525,2.7525,0,0,1-2.2784.9033,4.3244,4.3244,0,0,1-2.6386-.7676,12.554,12.554,0,0,1,.0478,1.6944V50.537h-2.35v-10.92Zm.4316,2.3974v3.6133a8.29,8.29,0,0,0,1.791.32,1.1967,1.1967,0,0,0,1.0791-.4482,3.8533,3.8533,0,0,0,.2959-1.87,4.3592,4.3592,0,0,0-.2714-1.8789,1.004,1.004,0,0,0-.96-.4874A3.7851,3.7851,0,0,0,514.8946,42.0145Z"/>
    <path class="c" d="M524.0558,39.6171l.1757,1.15a3.6913,3.6913,0,0,1,1.3672-.9747,4.3474,4.3474,0,0,1,1.7666-.3837q2.7188,0,2.7188,4.2207a5.1964,5.1964,0,0,1-.7276,3.1738,2.7522,2.7522,0,0,1-2.2783.9033,4.3249,4.3249,0,0,1-2.6387-.7676,12.5373,12.5373,0,0,1,.0479,1.6944V50.537h-2.35v-10.92Zm.4316,2.3974v3.6133a8.2887,8.2887,0,0,0,1.791.32,1.1969,1.1969,0,0,0,1.0791-.4482,3.8533,3.8533,0,0,0,.2959-1.87,4.3572,4.3572,0,0,0-.2715-1.8789,1.0039,1.0039,0,0,0-.96-.4874A3.7851,3.7851,0,0,0,524.4874,42.0145Z"/>
    <path class="c" d="M534.0968,36.3075v8.6172q0,.8.8955.8h.6386l.2725,1.6465a4.2373,4.2373,0,0,1-1.8867.3193,2.3389,2.3389,0,0,1-1.6631-.5674,2.0891,2.0891,0,0,1-.6074-1.6064v-9.209Z"/>
    <path class="c" d="M537.6622,36.1317h1.0557a.6072.6072,0,0,1,.6875.6865v.8643a.6079.6079,0,0,1-.6875.6875h-1.0557a.6079.6079,0,0,1-.6875-.6875v-.8643A.6072.6072,0,0,1,537.6622,36.1317Zm1.7109,11.3672h-2.3505V39.6171h2.3505Z"/>
    <path class="c" d="M547.83,45.6278l.208,1.5352a7.701,7.701,0,0,1-3.0537.5273,4.1085,4.1085,0,0,1-3.0616-.9346,4.6121,4.6121,0,0,1-.8877-3.206,4.6079,4.6079,0,0,1,.8956-3.2217,4.1657,4.1657,0,0,1,3.0859-.9355,7.2561,7.2561,0,0,1,2.9092.496l-.2559,1.4708q-1.7271-.0322-2.2539-.0323a1.9363,1.9363,0,0,0-1.4951.4639,2.7587,2.7587,0,0,0-.4072,1.7588,2.7568,2.7568,0,0,0,.4072,1.7588,1.9328,1.9328,0,0,0,1.4951.4638A17.4707,17.4707,0,0,0,547.83,45.6278Z"/>
    <path class="c" d="M549.6847,41.3759l-.2246-1.6a23.1353,23.1353,0,0,1,4.1093-.3837,3.5511,3.5511,0,0,1,2.3506.6474,2.8451,2.8451,0,0,1,.751,2.2471v5.2119h-1.87l-.24-1.1992a3.6764,3.6764,0,0,1-2.91,1.3906,2.8,2.8,0,0,1-1.8545-.5986,2.0579,2.0579,0,0,1-.72-1.6709v-.8a1.8025,1.8025,0,0,1,.64-1.4707,2.7126,2.7126,0,0,1,1.7754-.5274h2.8135V42.27a1.04,1.04,0,0,0-.2793-.8154,1.7552,1.7552,0,0,0-1.0156-.2071Q551.6988,41.2479,549.6847,41.3759Zm1.7265,3.4209v.3037q0,.8158.9268.8154a3.2651,3.2651,0,0,0,1.9668-.7676V44.0458h-2.126Q551.4113,44.0619,551.4112,44.7968Z"/>
    <path class="c" d="M561.6114,41.1991v3.7256a.8236.8236,0,0,0,.1924.624.9945.9945,0,0,0,.6709.1758h1.0078l.2559,1.6465a6.77,6.77,0,0,1-2.2227.3193,2.233,2.233,0,0,1-1.6631-.5986,2.2777,2.2777,0,0,1-.5918-1.6709V41.1991H557.87V39.6962l1.3906-.0791V37.41h2.3506v2.2071h2.19v1.582Z"/>
    <path class="c" d="M565.8165,36.1317h1.0557a.6072.6072,0,0,1,.6875.6865v.8643a.6079.6079,0,0,1-.6875.6875h-1.0557a.6079.6079,0,0,1-.6875-.6875v-.8643A.6072.6072,0,0,1,565.8165,36.1317Zm1.7109,11.3672h-2.3506V39.6171h2.3506Z"/>
    <path class="c" d="M573.25,39.3925a4.2306,4.2306,0,0,1,3.126.9521,4.56,4.56,0,0,1,.9189,3.2207,4.4992,4.4992,0,0,1-.9189,3.2061,5.7166,5.7166,0,0,1-6.2676,0,4.5034,4.5034,0,0,1-.919-3.2061,4.5633,4.5633,0,0,1,.919-3.23A4.283,4.283,0,0,1,573.25,39.3925Zm0,1.7753a1.4159,1.4159,0,0,0-1.2627.48,3.8544,3.8544,0,0,0-.3193,1.918,3.7635,3.7635,0,0,0,.3193,1.8867,1.4162,1.4162,0,0,0,1.2627.48,1.3991,1.3991,0,0,0,1.2392-.48,3.6757,3.6757,0,0,0,.3282-1.8867,3.8479,3.8479,0,0,0-.32-1.91A1.3867,1.3867,0,0,0,573.25,41.1678Z"/>
    <path class="c" d="M580.8282,39.6171l.1758,1.167a5.38,5.38,0,0,1,3.374-1.3916,2.2389,2.2389,0,0,1,1.6387.5595,2.1946,2.1946,0,0,1,.5674,1.6309v5.916h-2.35V42.3182a1.1649,1.1649,0,0,0-.168-.7265.7507.7507,0,0,0-.6-.2,5.51,5.51,0,0,0-2.19.72v5.3877H578.91V39.6171Z"/>
    <path class="c" d="M528.421,55.493V64.11q0,.8.8955.8h.6387l.2724,1.6465a4.2368,4.2368,0,0,1-1.8867.3194,2.3389,2.3389,0,0,1-1.6631-.5674,2.09,2.09,0,0,1-.6074-1.6065V55.493Z"/>
    <path class="c" d="M531.4913,60.5614l-.2246-1.6a23.1274,23.1274,0,0,1,4.1094-.3838,3.5509,3.5509,0,0,1,2.3506.6475,2.8452,2.8452,0,0,1,.7509,2.247v5.2119h-1.87l-.24-1.1992a3.6764,3.6764,0,0,1-2.91,1.3907,2.8,2.8,0,0,1-1.8545-.5987,2.0577,2.0577,0,0,1-.72-1.6709v-.8a1.8027,1.8027,0,0,1,.64-1.4707,2.7127,2.7127,0,0,1,1.7753-.5273h2.8135v-.3526a1.04,1.04,0,0,0-.2793-.8154,1.7549,1.7549,0,0,0-1.0156-.207Q533.5055,60.4335,531.4913,60.5614Zm1.7266,3.4209v.3037q0,.816.9267.8154a3.2647,3.2647,0,0,0,1.9668-.7675V63.2313h-2.126Q533.2179,63.2475,533.2179,63.9823Z"/>
    <path class="c" d="M548.1827,58.8026l-2.7978,7.9942a6.3566,6.3566,0,0,1-.5518,1.1826,5.3521,5.3521,0,0,1-.8389,1.0468,3.1257,3.1257,0,0,1-1.2715.7442,3.9768,3.9768,0,0,1-1.6865.1279l-.1924-1.3916a4.3874,4.3874,0,0,0,1.503-.6631,2.6928,2.6928,0,0,0,.8476-1.0957l.0323-.0635h-.4483a.7366.7366,0,0,1-.7676-.5751l-2.5732-7.3067h2.5254l1.4717,5.1q.1436.56.2392,1.1836h.208c.0323-.1279.085-.3281.16-.6s.1279-.4658.1592-.584l1.455-5.1Z"/>
    <path class="c" d="M554.1632,63.535h-2.8467a1.6382,1.6382,0,0,0,.5195,1.1592,2.3606,2.3606,0,0,0,1.3516.2959,28.4536,28.4536,0,0,0,2.9414-.1767l.2236,1.4716a8.0948,8.0948,0,0,1-3.4375.5909,4.3233,4.3233,0,0,1-3.165-.959,4.4079,4.4079,0,0,1-.9434-3.166,4.5542,4.5542,0,0,1,.919-3.2452,4.2535,4.2535,0,0,1,3.0937-.9277,4.6919,4.6919,0,0,1,2.8457.68,2.49,2.49,0,0,1,.8955,2.07,2.2128,2.2128,0,0,1-.5673,1.6553A2.5588,2.5588,0,0,1,554.1632,63.535Zm-2.8946-1.4228h2.2383a.685.685,0,0,0,.584-.208,1.0264,1.0264,0,0,0,.1514-.6074.9134.9134,0,0,0-.2871-.7754,1.85,1.85,0,0,0-1.0557-.2159,1.682,1.682,0,0,0-1.2471.3594A2.3724,2.3724,0,0,0,551.2686,62.1122Z"/>
    <path class="c" d="M563.755,58.578l-.2393,2.19h-.64a8.6212,8.6212,0,0,0-2.4141.544v5.372h-2.3662V58.8026h1.8379l.208,1.15a4.9749,4.9749,0,0,1,3.1982-1.375Z"/>
  </g>
  <rect class="d" x="489.2096" y="96.9432" width="110.2719" height="51.0347"/>
  <g>
    <path d="M516.3741,108.2391H513.08v9.05h-2.4463v-9.05h-3.293v-1.9824h9.0332Z"/>
    <path d="M522.0977,109.1825l-.2392,2.19h-.64a8.6214,8.6214,0,0,0-2.414.544v5.372h-2.3662v-7.8818h1.8379l.208,1.15a4.9747,4.9747,0,0,1,3.1982-1.375Z"/>
    <path d="M523.4093,111.1659l-.2246-1.6a23.1263,23.1263,0,0,1,4.1093-.3838,3.5506,3.5506,0,0,1,2.3506.6475,2.8448,2.8448,0,0,1,.751,2.247v5.2119h-1.87l-.24-1.1992a3.6759,3.6759,0,0,1-2.91,1.3906,2.8,2.8,0,0,1-1.8545-.5986,2.0577,2.0577,0,0,1-.72-1.6709v-.8a1.8026,1.8026,0,0,1,.64-1.4707,2.7126,2.7126,0,0,1,1.7754-.5273h2.8135V112.06a1.04,1.04,0,0,0-.2793-.8154,1.7554,1.7554,0,0,0-1.0156-.207Q525.4234,111.038,523.4093,111.1659Zm1.7265,3.4209v.3037q0,.8158.9268.8154a3.2649,3.2649,0,0,0,1.9668-.7675v-1.1026h-2.126Q525.1359,113.852,525.1358,114.5868Z"/>
    <path d="M534.1847,109.4071l.1757,1.167a5.3808,5.3808,0,0,1,3.3741-1.3916,2.2384,2.2384,0,0,1,1.6386.56,2.1941,2.1941,0,0,1,.5674,1.6308v5.916h-2.35v-5.1806a1.1644,1.1644,0,0,0-.168-.7266.7507.7507,0,0,0-.6-.2,5.5122,5.5122,0,0,0-2.19.72v5.3877h-2.3662v-7.8818Z"/>
    <path d="M545.3448,114.3632l-1.9668-.5274a2.8309,2.8309,0,0,1-1.5029-.8721,2.4815,2.4815,0,0,1-.415-1.5263,1.9488,1.9488,0,0,1,.7587-1.7432,4.874,4.874,0,0,1,2.5987-.5117,23.0948,23.0948,0,0,1,3.6455.3037l-.16,1.52q-2.0141-.0321-3.0381-.0322c-.373,0-.6308.0029-.7754.0078a2.43,2.43,0,0,0-.4316.0567c-.1435.0312-.2314.082-.2637.1513a.7761.7761,0,0,0-.0478.3116,1.2735,1.2735,0,0,0,.0078.1445.3268.3268,0,0,0,.04.1191.9481.9481,0,0,0,.0557.0889.3445.3445,0,0,0,.0879.0713.5594.5594,0,0,0,.1045.0556c.0263.0108.0742.03.1435.0567s.1231.0449.16.0557.1064.0292.208.0556.1777.0459.2314.0567l2.0147.5429a3.1542,3.1542,0,0,1,1.5029.8076,2.1917,2.1917,0,0,1,.4473,1.4952,2.0639,2.0639,0,0,1-.8154,1.91,5.6406,5.6406,0,0,1-2.7979.5039,21.3967,21.3967,0,0,1-3.5332-.2715l.1436-1.5351q.5756.0322,2.7343.0322a7.59,7.59,0,0,0,1.6065-.1045.4618.4618,0,0,0,.376-.4873,1.2522,1.2522,0,0,0-.0079-.1435.3223.3223,0,0,0-.04-.12.4685.4685,0,0,0-.0635-.0879.52.52,0,0,0-.1045-.0722c-.0478-.0264-.0849-.0479-.1113-.0635a1.0354,1.0354,0,0,0-.1523-.0644c-.0743-.0264-.1338-.045-.1758-.0557s-.1172-.0293-.2236-.0557A2.1473,2.1473,0,0,1,545.3448,114.3632Z"/>
    <path d="M552.1876,109.4071l.1758,1.15a3.6884,3.6884,0,0,1,1.3672-.9746,4.3455,4.3455,0,0,1,1.7666-.3838q2.7188,0,2.7187,4.2207a5.1968,5.1968,0,0,1-.7275,3.1738,2.752,2.752,0,0,1-2.2783.9033,4.3245,4.3245,0,0,1-2.6387-.7675,12.5525,12.5525,0,0,1,.0478,1.6943v1.9033h-2.35v-10.92Zm.4316,2.3975v3.6132a8.2916,8.2916,0,0,0,1.791.32,1.1968,1.1968,0,0,0,1.0791-.4483,3.8531,3.8531,0,0,0,.2959-1.87,4.36,4.36,0,0,0-.2714-1.8789,1.004,1.004,0,0,0-.96-.4873A3.7851,3.7851,0,0,0,552.6192,111.8046Z"/>
    <path d="M563.587,109.1825a4.231,4.231,0,0,1,3.126.9521,4.56,4.56,0,0,1,.9189,3.2207,4.4986,4.4986,0,0,1-.9189,3.2061,5.7166,5.7166,0,0,1-6.2676,0,4.5033,4.5033,0,0,1-.9189-3.2061,4.563,4.563,0,0,1,.9189-3.2294A4.2827,4.2827,0,0,1,563.587,109.1825Zm0,1.7754a1.4159,1.4159,0,0,0-1.2627.48,3.8539,3.8539,0,0,0-.3193,1.9179,3.7642,3.7642,0,0,0,.3193,1.8868,1.4161,1.4161,0,0,0,1.2627.48,1.3994,1.3994,0,0,0,1.2393-.48,3.6777,3.6777,0,0,0,.3281-1.8868,3.8482,3.8482,0,0,0-.32-1.91A1.3866,1.3866,0,0,0,563.587,110.9579Z"/>
    <path d="M574.9063,109.1825l-.2392,2.19h-.64a8.6214,8.6214,0,0,0-2.414.544v5.372h-2.3662v-7.8818h1.8379l.208,1.15a4.9747,4.9747,0,0,1,3.1982-1.375Z"/>
    <path d="M579.1114,110.9891v3.7256a.8235.8235,0,0,0,.1924.624.9945.9945,0,0,0,.6709.1758h1.0078l.2559,1.6465a6.77,6.77,0,0,1-2.2227.3193,2.233,2.233,0,0,1-1.6631-.5986,2.2775,2.2775,0,0,1-.5918-1.6709v-4.2217H575.37v-1.5029l1.3906-.0791V107.2h2.3506v2.207h2.19v1.582Z"/>
    <path d="M528.421,125.2831V133.9q0,.8.8955.8h.6387l.2724,1.6465a4.2384,4.2384,0,0,1-1.8867.3193,2.3389,2.3389,0,0,1-1.6631-.5674,2.09,2.09,0,0,1-.6074-1.6064v-9.209Z"/>
    <path d="M531.4913,130.3514l-.2246-1.6a23.1368,23.1368,0,0,1,4.1094-.3838,3.5515,3.5515,0,0,1,2.3506.6475,2.8454,2.8454,0,0,1,.7509,2.2471v5.2119h-1.87l-.24-1.1992a3.6766,3.6766,0,0,1-2.91,1.3906,2.8,2.8,0,0,1-1.8545-.5986,2.0579,2.0579,0,0,1-.72-1.6709v-.8a1.8026,1.8026,0,0,1,.64-1.4707,2.7122,2.7122,0,0,1,1.7753-.5274h2.8135v-.3525a1.04,1.04,0,0,0-.2793-.8155,1.7549,1.7549,0,0,0-1.0156-.207Q533.5055,130.2235,531.4913,130.3514Zm1.7266,3.4209v.3037q0,.816.9267.8155a3.2649,3.2649,0,0,0,1.9668-.7676v-1.1025h-2.126Q533.2179,133.0375,533.2179,133.7723Z"/>
    <path d="M548.1827,128.5927l-2.7978,7.9941a6.3537,6.3537,0,0,1-.5518,1.1826,5.3556,5.3556,0,0,1-.8389,1.0469,3.1255,3.1255,0,0,1-1.2715.7441,3.9752,3.9752,0,0,1-1.6865.128l-.1924-1.3916a4.3893,4.3893,0,0,0,1.503-.6631,2.6934,2.6934,0,0,0,.8476-1.0957l.0323-.0635h-.4483a.7366.7366,0,0,1-.7676-.5752l-2.5732-7.3066h2.5254l1.4717,5.1q.1436.56.2392,1.1836h.208c.0323-.128.085-.3282.16-.6s.1279-.4658.1592-.5839l1.455-5.1Z"/>
    <path d="M554.1632,133.3251h-2.8467a1.6382,1.6382,0,0,0,.5195,1.1592,2.3614,2.3614,0,0,0,1.3516.2959,28.4284,28.4284,0,0,0,2.9414-.1768l.2236,1.4717a8.0965,8.0965,0,0,1-3.4375.5908,4.3229,4.3229,0,0,1-3.165-.959,4.4075,4.4075,0,0,1-.9434-3.166,4.5539,4.5539,0,0,1,.919-3.2451,4.2531,4.2531,0,0,1,3.0937-.9278,4.6919,4.6919,0,0,1,2.8457.68,2.4905,2.4905,0,0,1,.8955,2.07,2.2126,2.2126,0,0,1-.5673,1.6553A2.5588,2.5588,0,0,1,554.1632,133.3251Zm-2.8946-1.4229h2.2383a.6847.6847,0,0,0,.584-.208,1.0264,1.0264,0,0,0,.1514-.6074.9136.9136,0,0,0-.2871-.7754,1.8512,1.8512,0,0,0-1.0557-.2158,1.6816,1.6816,0,0,0-1.2471.3594A2.3718,2.3718,0,0,0,551.2686,131.9022Z"/>
    <path d="M563.755,128.368l-.2393,2.1905h-.64a8.62,8.62,0,0,0-2.4141.5439v5.3721h-2.3662v-7.8818h1.8379l.208,1.15a4.9749,4.9749,0,0,1,3.1982-1.375Z"/>
  </g>
  <rect class="e" x="489.21" y="164.5039" width="110.2719" height="51.0347"/>
  <g>
    <path class="c" d="M517.0616,184.85h-2.4307V173.8173h2.4307Z"/>
    <path class="c" d="M521.0743,176.9677l.1758,1.1669a5.38,5.38,0,0,1,3.374-1.3916,2.239,2.239,0,0,1,1.6387.56,2.1946,2.1946,0,0,1,.5674,1.6309v5.916h-2.35v-5.1807a1.1649,1.1649,0,0,0-.168-.7265.7507.7507,0,0,0-.6-.2,5.51,5.51,0,0,0-2.19.72V184.85h-2.3663v-7.8818Z"/>
    <path class="c" d="M531.8028,178.55v3.7256a.8236.8236,0,0,0,.1924.624.9945.9945,0,0,0,.6709.1758h1.0078l.2559,1.6465a6.7726,6.7726,0,0,1-2.2227.3193,2.2331,2.2331,0,0,1-1.6631-.5986,2.2777,2.2777,0,0,1-.5918-1.6709V178.55h-1.3906v-1.5029l1.3906-.0791v-2.2071h2.3506v2.2071h2.19v1.582Z"/>
    <path class="c" d="M540.3253,181.7h-2.8467a1.6386,1.6386,0,0,0,.5195,1.1592,2.3614,2.3614,0,0,0,1.3516.2959,28.4284,28.4284,0,0,0,2.9414-.1768l.2236,1.4717a8.0965,8.0965,0,0,1-3.4375.5908,4.3229,4.3229,0,0,1-3.165-.959,4.4075,4.4075,0,0,1-.9434-3.166,4.5539,4.5539,0,0,1,.919-3.2451,4.2531,4.2531,0,0,1,3.0937-.9278,4.6917,4.6917,0,0,1,2.8457.68,2.49,2.49,0,0,1,.8955,2.07,2.2126,2.2126,0,0,1-.5673,1.6553A2.5588,2.5588,0,0,1,540.3253,181.7Zm-2.8945-1.4229h2.2382a.6846.6846,0,0,0,.584-.208,1.0264,1.0264,0,0,0,.1514-.6074.9136.9136,0,0,0-.2871-.7754,1.8512,1.8512,0,0,0-1.0557-.2158,1.6816,1.6816,0,0,0-1.2471.3594A2.3713,2.3713,0,0,0,537.4308,180.2772Z"/>
    <path class="c" d="M549.9171,176.743l-.2393,2.1905h-.64a8.62,8.62,0,0,0-2.4141.5439V184.85h-2.3662v-7.8818h1.8379l.208,1.15a4.9749,4.9749,0,0,1,3.1982-1.375Z"/>
    <path class="c" d="M552.9708,176.9677l.1758,1.1669a5.38,5.38,0,0,1,3.374-1.3916,2.239,2.239,0,0,1,1.6387.56,2.1946,2.1946,0,0,1,.5674,1.6309v5.916h-2.35v-5.1807a1.165,1.165,0,0,0-.1679-.7265.7507.7507,0,0,0-.6-.2,5.51,5.51,0,0,0-2.1905.72V184.85h-2.3662v-7.8818Z"/>
    <path class="c" d="M565.6505,181.7h-2.8467a1.6382,1.6382,0,0,0,.5195,1.1592,2.3614,2.3614,0,0,0,1.3516.2959,28.4284,28.4284,0,0,0,2.9414-.1768l.2236,1.4717a8.0965,8.0965,0,0,1-3.4375.5908,4.3229,4.3229,0,0,1-3.165-.959,4.4075,4.4075,0,0,1-.9434-3.166,4.5539,4.5539,0,0,1,.919-3.2451,4.2531,4.2531,0,0,1,3.0937-.9278,4.6917,4.6917,0,0,1,2.8457.68,2.4905,2.4905,0,0,1,.8955,2.07,2.2126,2.2126,0,0,1-.5673,1.6553A2.5588,2.5588,0,0,1,565.6505,181.7Zm-2.8946-1.4229h2.2383a.6846.6846,0,0,0,.584-.208,1.0264,1.0264,0,0,0,.1514-.6074.9136.9136,0,0,0-.2871-.7754,1.8512,1.8512,0,0,0-1.0557-.2158,1.6816,1.6816,0,0,0-1.2471.3594A2.3718,2.3718,0,0,0,562.7559,180.2772Z"/>
    <path class="c" d="M572.6524,178.55v3.7256a.8236.8236,0,0,0,.1924.624.9945.9945,0,0,0,.6709.1758h1.0078l.2559,1.6465a6.7722,6.7722,0,0,1-2.2227.3193,2.2331,2.2331,0,0,1-1.6631-.5986,2.2777,2.2777,0,0,1-.5918-1.6709V178.55h-1.3906v-1.5029l1.3906-.0791v-2.2071h2.3506v2.2071h2.1905v1.582Z"/>
    <path class="c" d="M528.421,192.8436v8.6172q0,.8.8955.8h.6387l.2724,1.6465a4.237,4.237,0,0,1-1.8867.3193,2.3388,2.3388,0,0,1-1.6631-.5673,2.09,2.09,0,0,1-.6074-1.6065v-9.209Z"/>
    <path class="c" d="M531.4913,197.912l-.2246-1.6a23.1274,23.1274,0,0,1,4.1094-.3838,3.5515,3.5515,0,0,1,2.3506.6474,2.8455,2.8455,0,0,1,.7509,2.2471v5.2119h-1.87l-.24-1.1992a3.6766,3.6766,0,0,1-2.91,1.3906,2.8,2.8,0,0,1-1.8545-.5986,2.0577,2.0577,0,0,1-.72-1.6709v-.8a1.8027,1.8027,0,0,1,.64-1.4707,2.7121,2.7121,0,0,1,1.7753-.5273h2.8135v-.3526a1.04,1.04,0,0,0-.2793-.8154,1.7549,1.7549,0,0,0-1.0156-.207Q533.5055,197.7841,531.4913,197.912Zm1.7266,3.4209v.3037q0,.8159.9267.8154a3.2643,3.2643,0,0,0,1.9668-.7676v-1.1025h-2.126Q533.2179,200.5981,533.2179,201.3329Z"/>
    <path class="c" d="M548.1827,196.1532l-2.7978,7.9941a6.3546,6.3546,0,0,1-.5518,1.1827,5.3521,5.3521,0,0,1-.8389,1.0468,3.1257,3.1257,0,0,1-1.2715.7442,3.9768,3.9768,0,0,1-1.6865.1279l-.1924-1.3916a4.3874,4.3874,0,0,0,1.503-.6631,2.6928,2.6928,0,0,0,.8476-1.0957l.0323-.0635h-.4483a.7366.7366,0,0,1-.7676-.5752l-2.5732-7.3066h2.5254l1.4717,5.1q.1436.56.2392,1.1836h.208c.0323-.1279.085-.3281.16-.6s.1279-.4658.1592-.584l1.455-5.1Z"/>
    <path class="c" d="M554.1632,200.8856h-2.8467a1.6382,1.6382,0,0,0,.5195,1.1592,2.3606,2.3606,0,0,0,1.3516.2959,28.4284,28.4284,0,0,0,2.9414-.1768l.2236,1.4717a8.095,8.095,0,0,1-3.4375.5908,4.3233,4.3233,0,0,1-3.165-.9589,4.408,4.408,0,0,1-.9434-3.1661,4.5541,4.5541,0,0,1,.919-3.2451,4.2535,4.2535,0,0,1,3.0937-.9277,4.6919,4.6919,0,0,1,2.8457.68,2.49,2.49,0,0,1,.8955,2.07,2.213,2.213,0,0,1-.5673,1.6553A2.5593,2.5593,0,0,1,554.1632,200.8856Zm-2.8946-1.4228h2.2383a.685.685,0,0,0,.584-.208,1.0267,1.0267,0,0,0,.1514-.6075.9137.9137,0,0,0-.2871-.7754,1.8512,1.8512,0,0,0-1.0557-.2158,1.682,1.682,0,0,0-1.2471.3594A2.3722,2.3722,0,0,0,551.2686,199.4628Z"/>
    <path class="c" d="M563.755,195.9286l-.2393,2.19h-.64a8.6212,8.6212,0,0,0-2.4141.544v5.372h-2.3662v-7.8818h1.8379l.208,1.15a4.9749,4.9749,0,0,1,3.1982-1.375Z"/>
  </g>
  <g>
    <line class="f" x1="221.8434" y1="56.2233" x2="224.4392" y2="56.2233"/>
    <line class="g" x1="229.5708" y1="56.2233" x2="473.3199" y2="56.2233"/>
    <line class="f" x1="475.8857" y1="56.2233" x2="478.4815" y2="56.2233"/>
  </g>
  <polygon points="473.07 56.223 473.07 49.094 479.244 52.659 485.419 56.223 479.244 59.788 473.07 63.353 473.07 56.223"/>
  <polygon points="226.939 56.223 226.939 49.094 220.765 52.659 214.59 56.223 220.765 59.788 226.939 63.353 226.939 56.223"/>
  <g>
    <line class="f" x1="221.8434" y1="122.3009" x2="224.4392" y2="122.3009"/>
    <line class="g" x1="229.5708" y1="122.3009" x2="473.3199" y2="122.3009"/>
    <line class="f" x1="475.8857" y1="122.3009" x2="478.4815" y2="122.3009"/>
  </g>
  <polygon points="473.07 122.301 473.07 115.171 479.244 118.736 485.419 122.301 479.244 125.866 473.07 129.43 473.07 122.301"/>
  <polygon points="226.939 122.301 226.939 115.171 220.765 118.736 214.59 122.301 220.765 125.866 226.939 129.43 226.939 122.301"/>
  <g>
    <line class="f" x1="221.8434" y1="190.3219" x2="224.4392" y2="190.3219"/>
    <line class="g" x1="229.5708" y1="190.3219" x2="473.3199" y2="190.3219"/>
    <line class="f" x1="475.8857" y1="190.3219" x2="478.4815" y2="190.3219"/>
  </g>
  <polygon points="473.07 190.322 473.07 183.192 479.244 186.757 485.419 190.322 479.244 193.887 473.07 197.451 473.07 190.322"/>
  <polygon points="226.939 190.322 226.939 183.192 220.765 186.757 214.59 190.322 220.765 193.887 226.939 197.451 226.939 190.322"/>
  <g>
    <line class="f" x1="221.8434" y1="260.2864" x2="224.4392" y2="260.2864"/>
    <line class="g" x1="229.5708" y1="260.2864" x2="473.3199" y2="260.2864"/>
    <line class="f" x1="475.8857" y1="260.2864" x2="478.4815" y2="260.2864"/>
  </g>
  <polygon points="473.07 260.286 473.07 253.157 479.244 256.722 485.419 260.286 479.244 263.851 473.07 267.416 473.07 260.286"/>
  <polygon points="226.939 260.286 226.939 253.157 220.765 256.722 214.59 260.286 220.765 263.851 226.939 267.416 226.939 260.286"/>
  <g>
    <path d="M337.8448,43.4823V35.4364q1.6552-.1054,3.125-.1045a3.37,3.37,0,0,1,2.6758.8858,5.1528,5.1528,0,0,1,.752,3.2412,5.1522,5.1522,0,0,1-.752,3.2421,3.37,3.37,0,0,1-2.6758.8858Q339.5005,43.5868,337.8448,43.4823Zm1.7725-6.752v5.4463q.1977,0,.6474.0059t.7051.0059a1.3011,1.3011,0,0,0,1.2305-.5713,4.7672,4.7672,0,0,0,.332-2.1582,4.8007,4.8007,0,0,0-.332-2.1621,1.2951,1.2951,0,0,0-1.2305-.5782Z"/>
    <path d="M345.8214,39.0165l-.1641-1.166a16.8765,16.8765,0,0,1,2.9971-.28,2.5833,2.5833,0,0,1,1.7139.4726,2.0686,2.0686,0,0,1,.5488,1.6377v3.8018h-1.3643l-.1758-.875a2.68,2.68,0,0,1-2.122,1.0146,2.0441,2.0441,0,0,1-1.3526-.4365,1.5011,1.5011,0,0,1-.5244-1.2187v-.583a1.3159,1.3159,0,0,1,.4658-1.0733,1.979,1.979,0,0,1,1.295-.3847h2.0517v-.2569a.7566.7566,0,0,0-.2041-.5947,1.2743,1.2743,0,0,0-.74-.1514Q347.29,38.9227,345.8214,39.0165Zm1.2588,2.4951v.2217q0,.5948.6767.5947a2.379,2.379,0,0,0,1.4336-.56v-.8047H347.64A.4959.4959,0,0,0,347.08,41.5116Z"/>
    <path d="M354.52,38.8876v2.7177a.5994.5994,0,0,0,.14.4541.7247.7247,0,0,0,.49.129h.7344l.1865,1.2a4.9072,4.9072,0,0,1-1.6211.2334,1.6264,1.6264,0,0,1-1.2119-.4365,1.66,1.66,0,0,1-.4316-1.2187V38.8876h-1.0147V37.7919l1.0147-.0586V36.1239H354.52v1.6094h1.5977v1.1543Z"/>
    <path d="M357.2257,39.0165l-.1641-1.166a16.8765,16.8765,0,0,1,2.9971-.28,2.5833,2.5833,0,0,1,1.7139.4726,2.0686,2.0686,0,0,1,.5488,1.6377v3.8018h-1.3643l-.1758-.875a2.68,2.68,0,0,1-2.122,1.0146,2.0441,2.0441,0,0,1-1.3526-.4365,1.5011,1.5011,0,0,1-.5244-1.2187v-.583a1.3159,1.3159,0,0,1,.4658-1.0733,1.979,1.979,0,0,1,1.295-.3847h2.0517v-.2569a.7566.7566,0,0,0-.2041-.5947,1.2743,1.2743,0,0,0-.74-.1514Q358.694,38.9227,357.2257,39.0165Zm1.2588,2.4951v.2217q0,.5948.6767.5947a2.379,2.379,0,0,0,1.4336-.56v-.8047H359.044A.4959.4959,0,0,0,358.4845,41.5116Z"/>
  </g>
  <g>
    <path d="M326.4112,106.5145l-1.6211-.5722a2.2124,2.2124,0,0,1-1.6679-2.3555,2.0389,2.0389,0,0,1,.6474-1.7783,4.2163,4.2163,0,0,1,2.28-.4483,9.76,9.76,0,0,1,2.6465.3145l-.1162,1.2129q-1.0152-.0353-2.52-.0352a2.3072,2.3072,0,0,0-.9326.1231q-.233.1215-.2334.6113a.7857.7857,0,0,0,.1758.5723,1.7833,1.7833,0,0,0,.6641.3378l1.5273.5245a2.55,2.55,0,0,1,1.3184.8925,2.5774,2.5774,0,0,1,.3847,1.4746,2.1653,2.1653,0,0,1-.6533,1.837,4.103,4.103,0,0,1-2.332.4834,13.0189,13.0189,0,0,1-2.7637-.3028l.1045-1.2832q2.4844.0587,2.6592.0586a1.9968,1.9968,0,0,0,.95-.1513.6971.6971,0,0,0,.2392-.63.82.82,0,0,0-.1631-.5772A1.4862,1.4862,0,0,0,326.4112,106.5145Z"/>
    <path d="M333.78,107.2606h-2.0762a1.19,1.19,0,0,0,.3789.8447,1.7144,1.7144,0,0,0,.9853.2159,20.7549,20.7549,0,0,0,2.1456-.128l.164,1.0723a5.9031,5.9031,0,0,1-2.5078.4316,3.1579,3.1579,0,0,1-2.3086-.6992,3.2141,3.2141,0,0,1-.6875-2.3086,3.3168,3.3168,0,0,1,.67-2.3672,3.1014,3.1014,0,0,1,2.2569-.6767,3.4183,3.4183,0,0,1,2.0752.4961,1.8154,1.8154,0,0,1,.6533,1.51,1.6148,1.6148,0,0,1-.4141,1.2071A1.87,1.87,0,0,1,333.78,107.2606Zm-2.1114-1.0381h1.6328a.5009.5009,0,0,0,.4258-.1513.7452.7452,0,0,0,.11-.4434.6625.6625,0,0,0-.21-.5654,1.3444,1.3444,0,0,0-.7695-.1572,1.2284,1.2284,0,0,0-.9092.2617A1.7305,1.7305,0,0,0,331.669,106.2225Z"/>
    <path d="M342.4561,104.5663l-.7236.0937a2.1066,2.1066,0,0,1,.1406.8282,1.6117,1.6117,0,0,1-.6005,1.4218,3.8522,3.8522,0,0,1-2.1045.42,8.3184,8.3184,0,0,1-.9913-.0577.4139.4139,0,0,0-.0527.42.4276.4276,0,0,0,.3906.2675l2.087.2452a2.0665,2.0665,0,0,1,1.2773.5127,1.6771,1.6771,0,0,1,.3906,1.2011A1.5693,1.5693,0,0,1,341.61,111.4a5.0971,5.0971,0,0,1-2.3613.3847,5.3262,5.3262,0,0,1-2.4023-.3672,1.4275,1.4275,0,0,1-.6289-1.3476,1.2185,1.2185,0,0,1,.2041-.7285,1.7545,1.7545,0,0,1,.705-.5186,1.1585,1.1585,0,0,1,.1866-1.7724,1.5422,1.5422,0,0,1-.8516-1.5508,1.6205,1.6205,0,0,1,.6064-1.4346,3.885,3.885,0,0,1,2.11-.42,5.8269,5.8269,0,0,1,1.5049.1631h1.8535Zm-2.7753,4.77-1.4463-.1514a.8591.8591,0,0,0-.3731.6651q0,.4189.2569.5361a3.2863,3.2863,0,0,0,1.1074.1162,3.32,3.32,0,0,0,1.126-.122.5.5,0,0,0,.2734-.5079c0-.2021-.0586-.33-.1748-.3847A3.156,3.156,0,0,0,339.6808,109.3358Zm-.5127-3.1015a1.6476,1.6476,0,0,0,.8681-.1631.6575.6575,0,0,0,.2393-.583.6443.6443,0,0,0-.2334-.583,1.7385,1.7385,0,0,0-.874-.1524,1.7771,1.7771,0,0,0-.8809.1524.6373.6373,0,0,0-.2393.583.6575.6575,0,0,0,.2393.583A1.68,1.68,0,0,0,339.1681,106.2343Z"/>
    <path d="M344.7765,103.8085l.1171.84a3.2753,3.2753,0,0,1,2.1924-1.0029,1.384,1.384,0,0,1,1.4805.9326,3.0958,3.0958,0,0,1,2.0986-.9326,1.4313,1.4313,0,0,1,1.5977,1.5976v4.3145h-1.7139v-3.7783a.8259.8259,0,0,0-.1279-.5244.61.61,0,0,0-.4785-.1514,1.412,1.412,0,0,0-.5362.1045,5.6824,5.6824,0,0,0-.7461.4082v3.9414H347.004v-3.7783a.7513.7513,0,0,0-.1455-.5244.6358.6358,0,0,0-.4727-.1514,2.7412,2.7412,0,0,0-1.2705.501v3.9531h-1.7148v-5.749Z"/>
    <path d="M357.3009,107.2606h-2.0762a1.19,1.19,0,0,0,.3789.8447,1.7146,1.7146,0,0,0,.9854.2159,20.7547,20.7547,0,0,0,2.1455-.128l.164,1.0723a5.9028,5.9028,0,0,1-2.5078.4316,3.1579,3.1579,0,0,1-2.3086-.6992,3.2141,3.2141,0,0,1-.6875-2.3086,3.3168,3.3168,0,0,1,.67-2.3672,3.1014,3.1014,0,0,1,2.2569-.6767,3.4183,3.4183,0,0,1,2.0752.4961,1.8154,1.8154,0,0,1,.6533,1.51,1.6148,1.6148,0,0,1-.4141,1.2071A1.87,1.87,0,0,1,357.3009,107.2606Zm-2.1114-1.0381h1.6329a.5008.5008,0,0,0,.4257-.1513.7444.7444,0,0,0,.11-.4434.6623.6623,0,0,0-.21-.5654,1.3444,1.3444,0,0,0-.7695-.1572,1.2284,1.2284,0,0,0-.9092.2617A1.7305,1.7305,0,0,0,355.19,106.2225Z"/>
    <path d="M361.5684,103.8085l.129.8515a3.9185,3.9185,0,0,1,2.46-1.0146,1.6316,1.6316,0,0,1,1.1953.4082,1.6011,1.6011,0,0,1,.4141,1.1894v4.3145h-1.7139v-3.7783a.8477.8477,0,0,0-.123-.53.5492.5492,0,0,0-.4375-.1455,4.0265,4.0265,0,0,0-1.5967.5244v3.93H360.169v-5.749Z"/>
    <path d="M369.3927,104.9628v2.7177a.5994.5994,0,0,0,.14.4541.7252.7252,0,0,0,.49.1289h.7343l.1865,1.2a4.9061,4.9061,0,0,1-1.621.2334,1.6266,1.6266,0,0,1-1.212-.4365,1.66,1.66,0,0,1-.4316-1.2187v-3.0791h-1.0146v-1.0957l1.0146-.0586v-1.6094h1.7139v1.6094H370.99v1.1543Z"/>
    <path d="M374.5,107.4237l-1.4336-.3848a2.0575,2.0575,0,0,1-1.0967-.6357,1.8149,1.8149,0,0,1-.3027-1.1133,1.4207,1.4207,0,0,1,.5537-1.2715,3.5565,3.5565,0,0,1,1.8945-.373,16.8242,16.8242,0,0,1,2.6592.2217l-.1172,1.1074q-1.4693-.0234-2.2148-.0235c-.2725,0-.461.003-.5655.0059a1.8427,1.8427,0,0,0-.3154.041c-.1045.0235-.1689.0606-.1924.1114a.5646.5646,0,0,0-.0351.2275.8538.8538,0,0,0,.0058.1045.2349.2349,0,0,0,.0293.0879.6411.6411,0,0,0,.041.0635.2438.2438,0,0,0,.0645.0527.4719.4719,0,0,0,.0752.041q.0292.0117.1055.041c.05.0186.0888.0322.1162.04s.0781.0214.1513.041.1309.0332.169.041l1.47.3965a2.2914,2.2914,0,0,1,1.0957.5888,1.5957,1.5957,0,0,1,.3272,1.09,1.5065,1.5065,0,0,1-.5948,1.3935,4.1169,4.1169,0,0,1-2.041.3672,15.4974,15.4974,0,0,1-2.5771-.1982l.1054-1.1192q.4189.0236,1.9942.0235a5.5382,5.5382,0,0,0,1.1719-.0762.3366.3366,0,0,0,.2734-.3555.8422.8422,0,0,0-.0059-.1045.2321.2321,0,0,0-.0293-.0878.34.34,0,0,0-.0459-.0645.4045.4045,0,0,0-.0761-.0518q-.0528-.0293-.0821-.0468a.6917.6917,0,0,0-.11-.0469c-.0547-.02-.0977-.0332-.1279-.041s-.086-.02-.1641-.04A1.4946,1.4946,0,0,1,374.5,107.4237Z"/>
  </g>
  <g>
    <path d="M320.505,142.5975v-8.0459q1.6553-.1055,3.125-.1045a3.37,3.37,0,0,1,2.6758.8858,7.364,7.364,0,0,1,0,6.4834,3.37,3.37,0,0,1-2.6758.8857Q322.1608,142.702,320.505,142.5975Zm1.7724-6.7519v5.4463q.1978,0,.6475.0058t.7051.0059a1.3006,1.3006,0,0,0,1.23-.5713,7.1914,7.1914,0,0,0,0-4.32,1.2948,1.2948,0,0,0-1.23-.5781Z"/>
    <path d="M328.4815,138.1317l-.164-1.166a16.8856,16.8856,0,0,1,2.997-.28,2.5829,2.5829,0,0,1,1.7139.4727,2.0684,2.0684,0,0,1,.5488,1.6377v3.8017H332.213l-.1758-.875a2.68,2.68,0,0,1-2.1221,1.0147,2.0441,2.0441,0,0,1-1.3525-.4365,1.5013,1.5013,0,0,1-.5244-1.2188v-.583a1.3153,1.3153,0,0,1,.4658-1.0732,1.9782,1.9782,0,0,1,1.2949-.3848h2.0518v-.2568a.7567.7567,0,0,0-.2041-.5948,1.2748,1.2748,0,0,0-.74-.1513Q329.95,138.038,328.4815,138.1317Zm1.2588,2.4951v.2217q0,.5948.6768.5947a2.38,2.38,0,0,0,1.4336-.5595v-.8047H330.3A.4958.4958,0,0,0,329.74,140.6268Z"/>
    <path d="M337.18,138.0028v2.7178a.6.6,0,0,0,.14.4541.7257.7257,0,0,0,.49.1289h.7343l.1866,1.2a4.91,4.91,0,0,1-1.6211.2334,1.6264,1.6264,0,0,1-1.2119-.4365,1.66,1.66,0,0,1-.4317-1.2188v-3.0791h-1.0146v-1.0957l1.0146-.0586v-1.6094H337.18v1.6094h1.5976v1.1543Z"/>
    <path d="M339.8858,138.1317l-.164-1.166a16.8847,16.8847,0,0,1,2.997-.28,2.5829,2.5829,0,0,1,1.7139.4727,2.0684,2.0684,0,0,1,.5488,1.6377v3.8017h-1.3642l-.1758-.875a2.68,2.68,0,0,1-2.1221,1.0147,2.0441,2.0441,0,0,1-1.3525-.4365,1.5013,1.5013,0,0,1-.5244-1.2188v-.583a1.3153,1.3153,0,0,1,.4658-1.0732,1.9782,1.9782,0,0,1,1.2949-.3848h2.0518v-.2568a.7567.7567,0,0,0-.2041-.5948,1.2748,1.2748,0,0,0-.74-.1513Q341.3541,138.038,339.8858,138.1317Zm1.2588,2.4951v.2217q0,.5948.6768.5947a2.38,2.38,0,0,0,1.4336-.5595v-.8047h-1.5508A.4958.4958,0,0,0,341.1446,140.6268Z"/>
    <path d="M352.1524,137.6063l-.7236.0938a2.1057,2.1057,0,0,1,.1406.8281,1.6115,1.6115,0,0,1-.6006,1.4219,3.8531,3.8531,0,0,1-2.1045.42,8.339,8.339,0,0,1-.9912-.0576.4137.4137,0,0,0-.0527.42.4276.4276,0,0,0,.3906.2676l2.0869.2451a2.0668,2.0668,0,0,1,1.2774.5127,1.6773,1.6773,0,0,1,.3906,1.2012,1.5691,1.5691,0,0,1-.6592,1.4814,5.0955,5.0955,0,0,1-2.3613.3848,5.3276,5.3276,0,0,1-2.4023-.3672,1.4277,1.4277,0,0,1-.6289-1.3477,1.2185,1.2185,0,0,1,.2041-.7285,1.7537,1.7537,0,0,1,.705-.5185,1.1586,1.1586,0,0,1,.1866-1.7725,1.5422,1.5422,0,0,1-.8516-1.5508,1.62,1.62,0,0,1,.6064-1.4346,3.8859,3.8859,0,0,1,2.11-.42,5.8269,5.8269,0,0,1,1.5049.1631h1.8535Zm-2.7754,4.77-1.4462-.1514a.8588.8588,0,0,0-.3731.665q0,.4189.2568.5362a5.2933,5.2933,0,0,0,2.2334-.0059.4992.4992,0,0,0,.2735-.5078c0-.2022-.0586-.33-.1748-.3848A3.1526,3.1526,0,0,0,349.377,142.3759Zm-.5127-3.1016a1.6477,1.6477,0,0,0,.8682-.1631.6575.6575,0,0,0,.2393-.583.6446.6446,0,0,0-.2334-.583,1.7387,1.7387,0,0,0-.8741-.1524,1.7769,1.7769,0,0,0-.8808.1524.6374.6374,0,0,0-.2393.583.6575.6575,0,0,0,.2393.583A1.68,1.68,0,0,0,348.8643,139.2743Z"/>
    <path d="M357.2247,136.6854l-.1748,1.5977h-.4658a6.2649,6.2649,0,0,0-1.7608.3965v3.9179h-1.7265v-5.749h1.3418l.1513.84a3.6226,3.6226,0,0,1,2.3321-1.003Z"/>
    <path d="M358.1817,138.1317l-.164-1.166a16.8847,16.8847,0,0,1,2.997-.28,2.5829,2.5829,0,0,1,1.7139.4727,2.0684,2.0684,0,0,1,.5488,1.6377v3.8017h-1.3642l-.1758-.875a2.68,2.68,0,0,1-2.1221,1.0147,2.0441,2.0441,0,0,1-1.3525-.4365,1.5013,1.5013,0,0,1-.5244-1.2188v-.583a1.3153,1.3153,0,0,1,.4658-1.0732,1.9782,1.9782,0,0,1,1.2949-.3848h2.0518v-.2568a.7567.7567,0,0,0-.2041-.5948,1.2748,1.2748,0,0,0-.74-.1513Q359.65,138.038,358.1817,138.1317Zm1.2588,2.4951v.2217q0,.5948.6768.5947a2.38,2.38,0,0,0,1.4336-.5595v-.8047H360A.4958.4958,0,0,0,359.4405,140.6268Z"/>
    <path d="M366.0167,136.8485l.1172.84a3.2746,3.2746,0,0,1,2.1924-1.003,1.3838,1.3838,0,0,1,1.48.9326,3.0958,3.0958,0,0,1,2.0987-.9326,1.4313,1.4313,0,0,1,1.5976,1.5977v4.3144h-1.7138v-3.7783a.8256.8256,0,0,0-.128-.5244.61.61,0,0,0-.4785-.1514,1.4138,1.4138,0,0,0-.5361.1045,5.6946,5.6946,0,0,0-.7461.4082v3.9414h-1.6563v-3.7783a.7516.7516,0,0,0-.1455-.5244.6355.6355,0,0,0-.4726-.1514,2.74,2.74,0,0,0-1.2705.501v3.9531h-1.7149v-5.749Z"/>
    <path d="M377.4327,140.4637l-1.4336-.3847a2.0582,2.0582,0,0,1-1.0967-.6358A1.8144,1.8144,0,0,1,374.6,138.33a1.42,1.42,0,0,1,.5537-1.2715,3.5556,3.5556,0,0,1,1.8945-.3731,16.835,16.835,0,0,1,2.6592.2217l-.1172,1.1074q-1.4692-.0234-2.2148-.0234c-.2725,0-.4609.0029-.5654.0058a1.8329,1.8329,0,0,0-.3155.0411c-.1045.0234-.1689.06-.1924.1113a.5653.5653,0,0,0-.0351.2275.8322.8322,0,0,0,.0059.1045.2336.2336,0,0,0,.0292.0879.6.6,0,0,0,.0411.0635.243.243,0,0,0,.0644.0527.4639.4639,0,0,0,.0752.041c.0195.0079.0547.0215.1055.0411s.0888.0322.1162.04.0781.0215.1514.041.1308.0332.1689.041l1.47.3965a2.2918,2.2918,0,0,1,1.0957.5889,1.5954,1.5954,0,0,1,.3272,1.09,1.5068,1.5068,0,0,1-.5947,1.3936,4.1188,4.1188,0,0,1-2.0411.3672,15.4969,15.4969,0,0,1-2.5771-.1983l.1055-1.1191q.4189.0234,1.9941.0234a5.5376,5.5376,0,0,0,1.1719-.0762.3366.3366,0,0,0,.2734-.3554.8412.8412,0,0,0-.0058-.1045.2355.2355,0,0,0-.0293-.0879.3562.3562,0,0,0-.0459-.0645.405.405,0,0,0-.0762-.0517q-.0528-.0293-.082-.0469a.7081.7081,0,0,0-.11-.0469c-.0547-.0195-.0977-.0332-.1279-.041s-.086-.02-.1641-.04A1.4971,1.4971,0,0,1,377.4327,140.4637Z"/>
  </g>
  <g>
    <path d="M329.1349,177.579v-8.0459q1.0839-.1055,3.0546-.1045a3.6015,3.6015,0,0,1,2.3145.5478,2.7038,2.7038,0,0,1,.624,2.0752,2.8348,2.8348,0,0,1-.5888,2.0821,3.1013,3.1013,0,0,1-2.1163.5537,12.1454,12.1454,0,0,1-1.5156-.0938v2.9854Zm1.7724-4.2559h1.2471a1.3471,1.3471,0,0,0,.9394-.2685,2.1368,2.1368,0,0,0,0-2.0059,1.314,1.314,0,0,0-.9394-.2559l-1.2471.0118Z"/>
    <path d="M336.2823,173.1132l-.164-1.1661a16.8843,16.8843,0,0,1,2.997-.28,2.5829,2.5829,0,0,1,1.7139.4726,2.0686,2.0686,0,0,1,.5488,1.6377v3.8018h-1.3642l-.1758-.875a2.68,2.68,0,0,1-2.1221,1.0146,2.0441,2.0441,0,0,1-1.3525-.4365,1.5011,1.5011,0,0,1-.5244-1.2187V175.48a1.3154,1.3154,0,0,1,.4658-1.0732,1.9786,1.9786,0,0,1,1.2949-.3848h2.0518v-.2568a.7569.7569,0,0,0-.2041-.5947,1.2747,1.2747,0,0,0-.74-.1514Q337.7505,173.0194,336.2823,173.1132Zm1.2588,2.4951v.2217q0,.5946.6768.5947a2.3792,2.3792,0,0,0,1.4336-.56V175.06h-1.5508A.4959.4959,0,0,0,337.5411,175.6083Z"/>
    <path d="M347.4522,176.2147l.1524,1.1192a5.6105,5.6105,0,0,1-2.2276.3847,3,3,0,0,1-2.2334-.6816,4.5544,4.5544,0,0,1,.0059-4.6875,3.0369,3.0369,0,0,1,2.251-.6826,5.3033,5.3033,0,0,1,2.1221.3613l-.1866,1.0732q-1.26-.0234-1.6445-.0234a1.41,1.41,0,0,0-1.09.3379,2.91,2.91,0,0,0,0,2.5654,1.41,1.41,0,0,0,1.09.3379A12.7735,12.7735,0,0,0,347.4522,176.2147Z"/>
    <path d="M350.8458,174.9091h-.5479a5.7926,5.7926,0,0,1,.0821.8623v1.8076h-1.7266v-8.1621H350.38v3.3691a6.2137,6.2137,0,0,1-.0821,1.05h.5362l1.4228-2.0058h1.9356L352.7,173.8241a1.7142,1.7142,0,0,1-.5371.5478v.0235a1.869,1.869,0,0,1,.5371.6181l1.69,2.5655h-1.9355Z"/>
    <path d="M358.59,175.2821h-2.0761a1.189,1.189,0,0,0,.3789.8447,1.7144,1.7144,0,0,0,.9853.2159,20.7515,20.7515,0,0,0,2.1455-.128l.1641,1.0723a5.9031,5.9031,0,0,1-2.5078.4316,3.1579,3.1579,0,0,1-2.3086-.6992,3.2141,3.2141,0,0,1-.6875-2.3086,3.3163,3.3163,0,0,1,.67-2.3672,3.1011,3.1011,0,0,1,2.2568-.6767,3.4179,3.4179,0,0,1,2.0752.4961,1.8153,1.8153,0,0,1,.6534,1.51,1.6148,1.6148,0,0,1-.4141,1.2071A1.8706,1.8706,0,0,1,358.59,175.2821Zm-2.1113-1.0381h1.6328a.5012.5012,0,0,0,.4258-.1513.7452.7452,0,0,0,.11-.4434.6625.6625,0,0,0-.21-.5654,1.3445,1.3445,0,0,0-.7695-.1573,1.228,1.228,0,0,0-.9092.2618A1.73,1.73,0,0,0,356.4786,174.244Z"/>
    <path d="M363.6974,172.9843v2.7177a.5994.5994,0,0,0,.14.4541.7249.7249,0,0,0,.49.1289h.7344l.1865,1.2a4.9068,4.9068,0,0,1-1.6211.2334,1.6264,1.6264,0,0,1-1.2119-.4365,1.66,1.66,0,0,1-.4316-1.2187v-3.0791h-1.0147v-1.0958l1.0147-.0585v-1.6094h1.7139V171.83h1.5976v1.1543Z"/>
    <path d="M368.8048,175.4452l-1.4336-.3848a2.0582,2.0582,0,0,1-1.0967-.6357,1.8149,1.8149,0,0,1-.3027-1.1133,1.42,1.42,0,0,1,.5537-1.2715,3.5565,3.5565,0,0,1,1.8945-.373,16.8372,16.8372,0,0,1,2.6592.2216l-.1172,1.1075q-1.4692-.0236-2.2148-.0235c-.2725,0-.461.003-.5655.0059a1.8427,1.8427,0,0,0-.3154.041c-.1045.0234-.1689.0606-.1924.1113a.5655.5655,0,0,0-.0351.2276.8538.8538,0,0,0,.0058.1045.2349.2349,0,0,0,.0293.0879.6091.6091,0,0,0,.041.0634.2438.2438,0,0,0,.0645.0528.4719.4719,0,0,0,.0752.041q.0292.0117.1055.041c.05.0186.0888.0322.1162.04s.0781.0215.1513.0411.1309.0332.169.041l1.47.3965a2.2914,2.2914,0,0,1,1.0957.5888,1.5955,1.5955,0,0,1,.3272,1.09,1.5066,1.5066,0,0,1-.5948,1.3935,4.1183,4.1183,0,0,1-2.041.3672,15.4974,15.4974,0,0,1-2.5771-.1982l.1054-1.1192q.419.0236,1.9942.0235a5.5364,5.5364,0,0,0,1.1718-.0762.3367.3367,0,0,0,.2735-.3555.8422.8422,0,0,0-.0059-.1045.2332.2332,0,0,0-.0293-.0879.3422.3422,0,0,0-.0459-.0644.4.4,0,0,0-.0761-.0518q-.0528-.0292-.0821-.0468a.6823.6823,0,0,0-.11-.0469c-.0547-.02-.0977-.0332-.128-.041s-.0859-.02-.164-.04A1.4885,1.4885,0,0,1,368.8048,175.4452Z"/>
  </g>
  <g>
    <path d="M335.71,240.8973h-2.88a.69.69,0,0,0-.4844.14.6076.6076,0,0,0-.1455.4551v1.3759h3.0781v1.294H332.2v3.3818h-1.7842v-6.4131a1.5807,1.5807,0,0,1,.4834-1.2187,1.8243,1.8243,0,0,1,1.2891-.4492,34.2459,34.2459,0,0,1,3.6152.1289Z"/>
    <path d="M340.7589,241.6317l-.1748,1.5977h-.4658a6.2649,6.2649,0,0,0-1.7608.3965v3.9179h-1.7266v-5.749h1.3418l.1514.84a3.6229,3.6229,0,0,1,2.332-1.0029Z"/>
    <path d="M341.7159,243.078l-.1641-1.166a16.8867,16.8867,0,0,1,2.9971-.28,2.5823,2.5823,0,0,1,1.7139.4727,2.0684,2.0684,0,0,1,.5488,1.6377v3.8017h-1.3642l-.1758-.875a2.68,2.68,0,0,1-2.1221,1.0147,2.0434,2.0434,0,0,1-1.3525-.4366,1.5009,1.5009,0,0,1-.5244-1.2187v-.583a1.3156,1.3156,0,0,1,.4658-1.0733,1.9786,1.9786,0,0,1,1.2949-.3847h2.0518V243.73a.7566.7566,0,0,0-.2042-.5947,1.2744,1.2744,0,0,0-.74-.1513Q343.1842,242.9843,341.7159,243.078Zm1.2588,2.4951v.2217q0,.5948.6768.5947a2.38,2.38,0,0,0,1.4336-.5595v-.8047h-1.5508A.4958.4958,0,0,0,342.9747,245.5731Z"/>
    <path d="M349.5509,241.7948l.1172.84a3.2749,3.2749,0,0,1,2.1923-1.0029,1.384,1.384,0,0,1,1.48.9326,3.0958,3.0958,0,0,1,2.0986-.9326,1.4314,1.4314,0,0,1,1.5977,1.5977v4.3144h-1.7139v-3.7783a.8257.8257,0,0,0-.1279-.5244.61.61,0,0,0-.4785-.1514,1.4138,1.4138,0,0,0-.5361.1045,5.6882,5.6882,0,0,0-.7461.4082v3.9414h-1.6563v-3.7783a.7516.7516,0,0,0-.1455-.5244.6358.6358,0,0,0-.4727-.1514,2.7412,2.7412,0,0,0-1.27.501v3.9531h-1.7148v-5.749Z"/>
    <path d="M362.0753,245.2469h-2.0762a1.19,1.19,0,0,0,.3789.8448,1.7159,1.7159,0,0,0,.9854.2158,20.78,20.78,0,0,0,2.1455-.1279l.164,1.0722a5.9026,5.9026,0,0,1-2.5078.4317,3.158,3.158,0,0,1-2.3086-.6992,3.2147,3.2147,0,0,1-.6875-2.3086,3.3161,3.3161,0,0,1,.67-2.3672,3.1005,3.1005,0,0,1,2.2568-.6768,3.4188,3.4188,0,0,1,2.0752.4961,1.8154,1.8154,0,0,1,.6533,1.51,1.6147,1.6147,0,0,1-.4141,1.207A1.87,1.87,0,0,1,362.0753,245.2469Zm-2.1113-1.038h1.6328a.5012.5012,0,0,0,.4258-.1514.745.745,0,0,0,.11-.4434.6624.6624,0,0,0-.21-.5654,1.3444,1.3444,0,0,0-.77-.1572,1.2284,1.2284,0,0,0-.9092.2617A1.73,1.73,0,0,0,359.964,244.2089Z"/>
    <path d="M367.4972,245.41l-1.4336-.3847a2.0578,2.0578,0,0,1-1.0967-.6358,1.8139,1.8139,0,0,1-.3027-1.1133,1.42,1.42,0,0,1,.5537-1.2714,3.5552,3.5552,0,0,1,1.8945-.3731,16.8361,16.8361,0,0,1,2.6592.2217l-.1172,1.1074q-1.4693-.0234-2.2149-.0234c-.2724,0-.4609.0029-.5654.0058a1.8317,1.8317,0,0,0-.3154.0411c-.1045.0234-.169.0605-.1924.1113a.565.565,0,0,0-.0352.2275.8515.8515,0,0,0,.0059.1045.2338.2338,0,0,0,.0293.0879.6122.6122,0,0,0,.041.0635.2421.2421,0,0,0,.0645.0527.4634.4634,0,0,0,.0752.041q.0292.0117.1054.041c.05.0186.0889.0323.1162.04s.0782.0215.1514.041.1309.0332.169.041l1.47.3965a2.2914,2.2914,0,0,1,1.0957.5889,1.5954,1.5954,0,0,1,.3271,1.09,1.5067,1.5067,0,0,1-.5947,1.3936,4.1183,4.1183,0,0,1-2.041.3672,15.499,15.499,0,0,1-2.5772-.1983l.1055-1.1191q.4189.0234,1.9942.0234a5.537,5.537,0,0,0,1.1718-.0762.3367.3367,0,0,0,.2735-.3554.84.84,0,0,0-.0059-.1045.2338.2338,0,0,0-.0293-.0879.3433.3433,0,0,0-.0459-.0645.3984.3984,0,0,0-.0762-.0517q-.0526-.0294-.082-.0469a.7057.7057,0,0,0-.11-.0469c-.0547-.0195-.0977-.0332-.128-.041s-.0859-.02-.164-.04A1.4849,1.4849,0,0,1,367.4972,245.41Z"/>
  </g>
  <polygon class="h" points="533.679 285.328 533.679 308.455 165.492 308.455 165.492 285.328 141.101 285.328 141.101 308.455 141.101 332.847 165.492 332.847 533.679 332.847 554.668 332.847 558.071 332.847 558.071 285.328 533.679 285.328"/>
  <rect x="100.5181" y="234.2936" width="110.2719" height="51.0347"/>
  <g>
    <path class="c" d="M143.5206,243.6063v8.2344a.834.834,0,0,0,.1992.623.9414.9414,0,0,0,.6641.1924h3.789l.1123,1.8545a46.4129,46.4129,0,0,1-4.6689.1758,2.5459,2.5459,0,0,1-1.9023-.64,2.3426,2.3426,0,0,1-.6241-1.711v-8.73Z"/>
    <path class="c" d="M150.1876,243.2714h1.0557a.6072.6072,0,0,1,.6875.6865v.8642a.6079.6079,0,0,1-.6875.6875h-1.0557a.6079.6079,0,0,1-.6875-.6875v-.8642A.6072.6072,0,0,1,150.1876,243.2714Zm1.7109,11.3671h-2.3506v-7.8818h2.3506Z"/>
    <path class="c" d="M155.8145,246.7567l.1758,1.167a5.38,5.38,0,0,1,3.374-1.3916,2.2385,2.2385,0,0,1,1.6387.56,2.1945,2.1945,0,0,1,.5674,1.6308v5.916h-2.35v-5.1806a1.1644,1.1644,0,0,0-.168-.7266.7507.7507,0,0,0-.6-.2,5.5107,5.5107,0,0,0-2.19.72v5.3876h-2.3662v-7.8818Z"/>
    <path class="c" d="M166.48,250.9774h-.752a8.06,8.06,0,0,1,.1123,1.1826v2.4785h-2.3662V243.4471H165.84v4.62a8.6236,8.6236,0,0,1-.1123,1.4394h.7354l1.9512-2.75h2.6533l-2.0459,2.7334a2.36,2.36,0,0,1-.7354.752v.0312a2.5717,2.5717,0,0,1,.7354.8477l2.3183,3.5175h-2.6543Z"/>
    <path class="c" d="M139.7315,262.6327V271.25q0,.8.8955.8h.6387l.2725,1.6465a4.2373,4.2373,0,0,1-1.8867.3193,2.3386,2.3386,0,0,1-1.6631-.5674,2.0891,2.0891,0,0,1-.6075-1.6064v-9.209Z"/>
    <path class="c" d="M142.8018,267.701l-.2246-1.6a23.1364,23.1364,0,0,1,4.1094-.3837,3.5515,3.5515,0,0,1,2.3506.6474,2.8451,2.8451,0,0,1,.751,2.2471v5.2119h-1.87l-.24-1.1992a3.6764,3.6764,0,0,1-2.91,1.3906,2.8,2.8,0,0,1-1.8545-.5986,2.0579,2.0579,0,0,1-.72-1.6709v-.8a1.8026,1.8026,0,0,1,.64-1.4707,2.7126,2.7126,0,0,1,1.7754-.5274h2.8135v-.3525a1.0405,1.0405,0,0,0-.2793-.8154,1.7554,1.7554,0,0,0-1.0157-.2071Q144.816,267.5731,142.8018,267.701Zm1.7266,3.4209v.3038q0,.8159.9268.8154a3.2651,3.2651,0,0,0,1.9668-.7676V270.371h-2.126Q144.5285,270.3871,144.5284,271.1219Z"/>
    <path class="c" d="M159.4933,265.9423l-2.7979,7.9941a6.3409,6.3409,0,0,1-.5518,1.1826,5.3549,5.3549,0,0,1-.8388,1.0469,3.1255,3.1255,0,0,1-1.2715.7441,3.9755,3.9755,0,0,1-1.6865.128l-.1924-1.3916a4.39,4.39,0,0,0,1.5029-.6631,2.6938,2.6938,0,0,0,.8477-1.0957l.0322-.0635h-.4482a.7365.7365,0,0,1-.7676-.5752l-2.5733-7.3066h2.5254l1.4717,5.1q.1436.56.2393,1.1836h.208c.0322-.128.0849-.3282.16-.6s.128-.4659.1592-.584l1.4551-5.1Z"/>
    <path class="c" d="M165.4737,270.6747H162.627a1.6382,1.6382,0,0,0,.52,1.1592,2.3608,2.3608,0,0,0,1.3515.2959,28.4284,28.4284,0,0,0,2.9414-.1768l.2237,1.4717a8.0965,8.0965,0,0,1-3.4375.5908,4.323,4.323,0,0,1-3.1651-.959,4.4075,4.4075,0,0,1-.9433-3.166,4.5539,4.5539,0,0,1,.9189-3.2451,4.2534,4.2534,0,0,1,3.0938-.9277,4.6921,4.6921,0,0,1,2.8457.68,2.4909,2.4909,0,0,1,.8955,2.07,2.2126,2.2126,0,0,1-.5674,1.6552A2.5587,2.5587,0,0,1,165.4737,270.6747Zm-2.8945-1.4229h2.2383a.6847.6847,0,0,0,.584-.208,1.0269,1.0269,0,0,0,.1513-.6074.9137.9137,0,0,0-.2871-.7754,1.8508,1.8508,0,0,0-1.0556-.2158,1.6813,1.6813,0,0,0-1.2471.3594A2.37,2.37,0,0,0,162.5792,269.2518Z"/>
    <path class="c" d="M175.0655,265.7177l-.2392,2.19h-.64a8.62,8.62,0,0,0-2.414.5439v5.3721h-2.3663v-7.8818h1.8379l.208,1.15a4.9746,4.9746,0,0,1,3.1983-1.375Z"/>
  </g>
  <rect x="489.2096" y="234.2936" width="110.2719" height="51.0347"/>
  <g>
    <path class="c" d="M532.21,243.6063v8.2344a.834.834,0,0,0,.1992.623.9412.9412,0,0,0,.664.1924h3.7891l.1123,1.8545a46.4129,46.4129,0,0,1-4.6689.1758,2.546,2.546,0,0,1-1.9024-.64,2.343,2.343,0,0,1-.624-1.711v-8.73Z"/>
    <path class="c" d="M538.877,243.2714h1.0557a.6072.6072,0,0,1,.6875.6865v.8642a.6079.6079,0,0,1-.6875.6875H538.877a.6079.6079,0,0,1-.6875-.6875v-.8642A.6072.6072,0,0,1,538.877,243.2714Zm1.711,11.3671h-2.3506v-7.8818h2.3506Z"/>
    <path class="c" d="M544.504,246.7567l.1758,1.167a5.38,5.38,0,0,1,3.374-1.3916,2.2385,2.2385,0,0,1,1.6387.56,2.1945,2.1945,0,0,1,.5674,1.6308v5.916h-2.35v-5.1806a1.1651,1.1651,0,0,0-.1679-.7266.7507.7507,0,0,0-.6-.2,5.511,5.511,0,0,0-2.1905.72v5.3876H542.586v-7.8818Z"/>
    <path class="c" d="M555.169,250.9774h-.7519a8.06,8.06,0,0,1,.1123,1.1826v2.4785h-2.3662V243.4471h2.3662v4.62a8.6236,8.6236,0,0,1-.1123,1.4394h.7353l1.9512-2.75h2.6533L557.711,249.49a2.3606,2.3606,0,0,1-.7353.752v.0312a2.57,2.57,0,0,1,.7353.8477l2.3184,3.5175h-2.6543Z"/>
    <path class="c" d="M528.421,262.6327V271.25q0,.8.8955.8h.6387l.2724,1.6465a4.237,4.237,0,0,1-1.8867.3193,2.3389,2.3389,0,0,1-1.6631-.5674,2.0894,2.0894,0,0,1-.6074-1.6064v-9.209Z"/>
    <path class="c" d="M531.4913,267.701l-.2246-1.6a23.1364,23.1364,0,0,1,4.1094-.3837,3.5515,3.5515,0,0,1,2.3506.6474,2.8454,2.8454,0,0,1,.7509,2.2471v5.2119h-1.87l-.24-1.1992a3.6766,3.6766,0,0,1-2.91,1.3906,2.8,2.8,0,0,1-1.8545-.5986,2.0579,2.0579,0,0,1-.72-1.6709v-.8a1.8026,1.8026,0,0,1,.64-1.4707,2.7122,2.7122,0,0,1,1.7753-.5274h2.8135v-.3525a1.04,1.04,0,0,0-.2793-.8154,1.7548,1.7548,0,0,0-1.0156-.2071Q533.5055,267.5731,531.4913,267.701Zm1.7266,3.4209v.3038q0,.8159.9267.8154a3.2649,3.2649,0,0,0,1.9668-.7676V270.371h-2.126Q533.2179,270.3871,533.2179,271.1219Z"/>
    <path class="c" d="M548.1827,265.9423l-2.7978,7.9941a6.3537,6.3537,0,0,1-.5518,1.1826,5.3556,5.3556,0,0,1-.8389,1.0469,3.1255,3.1255,0,0,1-1.2715.7441,3.9752,3.9752,0,0,1-1.6865.128l-.1924-1.3916a4.3893,4.3893,0,0,0,1.503-.6631,2.6928,2.6928,0,0,0,.8476-1.0957l.0323-.0635h-.4483a.7366.7366,0,0,1-.7676-.5752l-2.5732-7.3066h2.5254l1.4717,5.1q.1436.56.2392,1.1836h.208c.0323-.128.085-.3282.16-.6s.1279-.4659.1592-.584l1.455-5.1Z"/>
    <path class="c" d="M554.1632,270.6747h-2.8467a1.6382,1.6382,0,0,0,.5195,1.1592,2.3614,2.3614,0,0,0,1.3516.2959,28.4284,28.4284,0,0,0,2.9414-.1768l.2236,1.4717a8.0965,8.0965,0,0,1-3.4375.5908,4.3229,4.3229,0,0,1-3.165-.959,4.4075,4.4075,0,0,1-.9434-3.166,4.5539,4.5539,0,0,1,.919-3.2451,4.2531,4.2531,0,0,1,3.0937-.9277,4.6919,4.6919,0,0,1,2.8457.68,2.4906,2.4906,0,0,1,.8955,2.07,2.2126,2.2126,0,0,1-.5673,1.6552A2.5588,2.5588,0,0,1,554.1632,270.6747Zm-2.8946-1.4229h2.2383a.6847.6847,0,0,0,.584-.208,1.0262,1.0262,0,0,0,.1514-.6074.9137.9137,0,0,0-.2871-.7754,1.8512,1.8512,0,0,0-1.0557-.2158,1.6816,1.6816,0,0,0-1.2471.3594A2.3718,2.3718,0,0,0,551.2686,269.2518Z"/>
    <path class="c" d="M563.755,265.7177l-.2393,2.19h-.64a8.62,8.62,0,0,0-2.4141.5439v5.3721h-2.3662v-7.8818h1.8379l.208,1.15a4.9744,4.9744,0,0,1,3.1982-1.375Z"/>
  </g>
  <g>
    <path d="M340.3233,316.955h1.7139a.6007.6007,0,0,1,.665.665l.3145,7.3809H341.338l-.2686-6.6582h-.1982l-1.2129,4.9794a.6579.6579,0,0,1-.7227.5713H337.77a.6577.6577,0,0,1-.7226-.5713l-1.2246-4.9794h-.1983l-.2334,6.6582H333.712l.291-7.3809a.6076.6076,0,0,1,.6651-.665h1.7138a.6539.6539,0,0,1,.6992.5712l.98,4.0118c.0625.2558.1328.6338.21,1.1308h.1523q.01-.0585.087-.4785t.123-.6523l.9678-4.0118A.6769.6769,0,0,1,340.3233,316.955Z"/>
    <path d="M348.0431,322.704h-2.0762a1.19,1.19,0,0,0,.3789.8447,1.7153,1.7153,0,0,0,.9853.2158,20.78,20.78,0,0,0,2.1456-.1279l.164,1.0723a5.9046,5.9046,0,0,1-2.5078.4316,3.1579,3.1579,0,0,1-2.3086-.6992,3.2141,3.2141,0,0,1-.6875-2.3086,3.3168,3.3168,0,0,1,.67-2.3672,3.1008,3.1008,0,0,1,2.2569-.6768,3.419,3.419,0,0,1,2.0752.4961,1.8154,1.8154,0,0,1,.6533,1.51,1.6145,1.6145,0,0,1-.4141,1.207A1.87,1.87,0,0,1,348.0431,322.704Zm-2.1114-1.0381h1.6328a.501.501,0,0,0,.4258-.1514.7446.7446,0,0,0,.11-.4433.6628.6628,0,0,0-.21-.5655,1.3452,1.3452,0,0,0-.7695-.1572,1.2284,1.2284,0,0,0-.9092.2617A1.7309,1.7309,0,0,0,345.9317,321.6659Z"/>
    <path d="M356.4151,316.8387v8.1622h-1.3642l-.14-.84a2.7262,2.7262,0,0,1-2.1924.9795,1.6953,1.6953,0,0,1-1.5566-.7754,4.3815,4.3815,0,0,1-.4834-2.291,3.7825,3.7825,0,0,1,.5361-2.32,2.014,2.014,0,0,1,1.667-.6651,3.2474,3.2474,0,0,1,1.8662.5137q-.0585-.6416-.0586-1.2012v-1.5625Zm-1.7256,6.4131v-2.6591a4.8131,4.8131,0,0,0-1.2246-.2208.8879.8879,0,0,0-.7988.3262,2.8242,2.8242,0,0,0-.2148,1.3643,2.7865,2.7865,0,0,0,.2089,1.3232.8141.8141,0,0,0,.7471.333,1.7164,1.7164,0,0,0,.6182-.1A3.7684,3.7684,0,0,0,354.69,323.2518Z"/>
    <path d="M358.3517,316.71h.7695a.4435.4435,0,0,1,.501.502v.6289a.4431.4431,0,0,1-.501.502h-.7695a.4434.4434,0,0,1-.502-.502v-.6289A.4438.4438,0,0,1,358.3517,316.71Zm1.247,8.2911h-1.7138v-5.7491h1.7138Z"/>
    <path d="M361.2081,320.535l-.1641-1.166a16.8858,16.8858,0,0,1,2.9971-.28,2.5833,2.5833,0,0,1,1.7139.4727,2.0686,2.0686,0,0,1,.5488,1.6377v3.8018H364.94l-.1757-.875a2.68,2.68,0,0,1-2.1221,1.0146,2.0439,2.0439,0,0,1-1.3525-.4365,1.5011,1.5011,0,0,1-.5245-1.2188v-.583a1.3154,1.3154,0,0,1,.4659-1.0732,1.978,1.978,0,0,1,1.2949-.3848h2.0517v-.2568a.7565.7565,0,0,0-.2041-.5947,1.2743,1.2743,0,0,0-.74-.1514Q362.6764,320.4413,361.2081,320.535Zm1.2588,2.4952v.2216q0,.5947.6767.5948a2.3794,2.3794,0,0,0,1.4336-.56v-.8047h-1.5507A.4959.4959,0,0,0,362.4669,323.03Z"/>
  </g>
  <circle class="i" cx="153.2967" cy="320.7481" r="4.2524"/>
  <circle class="i" cx="153.2967" cy="301.3136" r="4.2524"/>
  <circle class="i" cx="172.7313" cy="320.7481" r="4.2524"/>
  <circle class="i" cx="192.1659" cy="320.7481" r="4.2524"/>
  <circle class="i" cx="211.6005" cy="320.7481" r="4.2524"/>
  <circle class="i" cx="231.0351" cy="320.7481" r="4.2524"/>
  <circle class="i" cx="250.4696" cy="320.7481" r="4.2524"/>
  <circle class="i" cx="269.9042" cy="320.7481" r="4.2524"/>
  <circle class="i" cx="289.3388" cy="320.7481" r="4.2524"/>
  <circle class="i" cx="308.7734" cy="320.7481" r="4.2524"/>
  <circle class="i" cx="545.8752" cy="320.7481" r="4.2524"/>
  <circle class="i" cx="545.8752" cy="301.3136" r="4.2524"/>
  <circle class="i" cx="526.4406" cy="320.7481" r="4.2524"/>
  <circle class="i" cx="507.006" cy="320.7481" r="4.2524"/>
  <circle class="i" cx="487.5714" cy="320.7481" r="4.2524"/>
  <circle class="i" cx="468.1369" cy="320.7481" r="4.2524"/>
  <circle class="i" cx="448.7023" cy="320.7481" r="4.2524"/>
  <circle class="i" cx="429.2677" cy="320.7481" r="4.2524"/>
  <circle class="i" cx="409.8331" cy="320.7481" r="4.2524"/>
  <circle class="i" cx="390.3986" cy="320.7481" r="4.2524"/>
</svg>
